<?xml version="1.0" standalone="no"?>
<!DOCTYPE svg PUBLIC "-//W3C//DTD SVG 1.1//EN" "http://www.w3.org/Graphics/SVG/1.1/DTD/svg11.dtd">
<svg xmlns="http://www.w3.org/2000/svg">
<metadata>Generated by Fontastic.me</metadata>
<defs>
<font id="ndqfonticons" horiz-adv-x="512">
<font-face font-family="ndqfonticons" units-per-em="512" ascent="480" descent="-32"/>
<missing-glyph horiz-adv-x="512" />

<glyph glyph-name="mobile" unicode="&#57345;" d="M355 382c0 0 0 0 0 0l-198 0c-11 0-19-9-19-21l0-187 0 0 0-77c0-12 8-21 19-21l198 0c11 0 19 9 19 21l0 285z m-145-288l-23 0c-6 0-11 5-11 11 0 7 5 12 11 12l23 0c6 0 11-5 11-12 0-6-5-11-11-11z m0 33l-23 0c-6 0-11 5-11 11 0 6 5 12 11 12l23 0c6 0 11-6 11-12 0-6-5-11-11-11z m0 32l-23 0c-6 0-11 5-11 12 0 6 5 11 11 11l23 0c6 0 11-5 11-11 0-7-5-12-11-12z m1 45l0 11 90 0 0-11z m56-110l-22 0c-6 0-11 5-11 11 0 7 5 12 11 12l22 0c6 0 11-5 11-12 0-6-5-11-11-11z m0 33l-22 0c-6 0-11 5-11 11 0 6 5 12 11 12l22 0c6 0 11-6 11-12 0-6-5-11-11-11z m0 32l-22 0c-6 0-11 5-11 12 0 6 5 11 11 11l22 0c6 0 11-5 11-11 0-7-5-12-11-12z m58-65l-23 0c-6 0-11 5-11 11 0 7 5 12 11 12l23 0c6 0 11-5 11-12 0-6-5-11-11-11z m0 33l-23 0c-6 0-11 5-11 11 0 6 5 12 11 12l23 0c6 0 11-6 11-12 0-6-5-11-11-11z m0 32l-23 0c-6 0-11 5-11 12 0 6 5 11 11 11l23 0c6 0 11-5 11-11 0-7-5-12-11-12z m15 69l-168 0 0 126 168 0z m29 208l-54 0c-2 0-5-3-5-5l0-39 64 0 0 39c0 2-2 5-5 5z"/>
<glyph glyph-name="downloads" unicode="&#57346;" d="M257 229l-194 139 386 0z m-198-35l394 0 0-50-394 0z"/>
<glyph glyph-name="mail" unicode="&#57347;" d="M86 390c-17-3-27-21-27-38l0-194c0-7 2-14 5-19l124 125z m312 1l-285 0 143-174z m28-2l-103-126 125-126c3 6 5 14 5 21l0 194c0 19-12 34-27 37z m-170-207l0 0 0 0-56 68-124-126c5-3 9-3 14-3l332 0c5 0 8 0 13 3l-124 125z"/>
<glyph glyph-name="feedback" unicode="&#57348;" d="M396 415l-280 0c-19 0-34-15-34-34l0-213c0-19 15-34 34-34l18 0 0-83 101 83 161 0c19 0 34 15 34 34l0 213c0 19-15 34-34 34z"/>
<glyph glyph-name="fb" unicode="&#57349;" d="M280 102l-57 0 0 154-39 0 0 53 39 0 0 31c0 43 11 70 62 70l42 0 0-53-26 0c-20 0-21-8-21-22l0-26 48 0-6-53-42 0z"/>
<glyph glyph-name="tumbler" unicode="&#57350;" d="M275 275l0-70c0-18 0-28 2-33 2-5 6-10 12-13 6-5 14-7 23-7 15 0 25 3 40 13l0-47c-13-6-25-9-35-12-11-2-22-4-35-4-14 0-22 2-33 6-11 3-20 8-27 15-8 6-13 13-16 21-3 7-5 18-5 32l0 108-41 0 0 43c12 4 26 10 34 17 9 7 16 16 21 26 5 11 9 24 11 40l49 0 0-77 77 0 0-58-77 0z"/>
<glyph glyph-name="linkedin" unicode="&#57351;" d="M179 102l-61 0 0 215 61 0z m-31 246c-16 0-30 14-30 31 0 17 14 31 30 31 17 0 31-14 31-31 0-17-14-31-31-31m246-246l-61 0 0 123c0 17-14 31-31 31-17 0-31-14-31-31l0-123-61 0 0 215 61 0 0-38c13 18 32 38 54 38 38 0 69-34 69-76l0-139z"/>
<glyph glyph-name="pdf" unicode="&#57352;" d="M377 228c-5 5-16 7-33 7-11 0-25-1-40-3-6 4-13 8-18 13-14 13-26 32-33 52 0 2 1 3 1 5 0 0 8 45 6 60 0 2-1 3-1 5l-1 1c-2 5-6 11-13 10l-4 1 0 0c-7 0-13-4-15-10-5-18 0-44 9-79l-2-5c-7-16-15-32-22-46l-1-2c-7-14-14-27-20-37l-7-4c0 0-11-6-13-7-22-13-37-28-39-40-1-3 0-8 4-10l6-3c3-2 5-2 8-2 16 0 34 19 58 62 29 9 62 17 90 21 22-12 49-20 65-20 3 0 6 0 8 0 3 1 6 3 8 6 3 5 4 11 3 18-1 2-2 5-4 7m-231-83c3 8 14 23 30 37 1 1 4 3 6 5-17-27-29-38-36-42m98 226c5 0 8-13 8-25 0-12-3-20-6-26-3 9-4 23-4 33 0 0-1 18 2 18m-29-161c3 6 7 13 10 20 9 17 15 30 19 41 9-15 19-28 31-39 2-1 3-2 5-4-25-5-46-11-65-18m157 1c-1-1-6-1-8-1-10 0-21 4-36 11 6 0 11 0 16 0 9 0 12 0 21-2 9-2 9-7 7-8m28 160l-53 52c-11 11-34 21-50 21l-176 0c-16 0-29-13-29-30l0-316c0-17 13-30 29-30l270 0c16 0 29 13 29 30l0 223c0 16-9 38-20 50m-17-17c1-1 2-3 3-4l-60 0 0 60c2-1 3-2 5-4z m14-256c0-4-3-6-6-6l-270 0c-3 0-6 2-6 6l0 316c0 4 3 6 6 6l176 0c2 0 4 0 6 0l0-94 93 0c1-2 1-4 1-5l0-223z"/>
<glyph glyph-name="word" unicode="&#57353;" d="M303 269l16 0-19-83-24 117-39 0-28-117-21 117-41 0 41-188 40 0 28 111 25-111 37 0 47 188-62 0z m97 102l-53 52c-11 11-34 21-50 21l-176 0c-16 0-29-13-29-30l0-316c0-17 13-30 29-30l270 0c16 0 29 13 29 30l0 223c0 16-9 38-20 50m-17-17c1-1 2-3 3-4l-60 0 0 60c2-1 3-2 5-4z m14-256c0-4-3-6-6-6l-270 0c-3 0-6 2-6 6l0 316c0 4 3 6 6 6l176 0c2 0 4 0 6 0l0-94 93 0c1-2 1-4 1-5l0-223z"/>
<glyph glyph-name="member" unicode="&#57354;" d="M338 166c-7 1-7 20-7 20 0 0 20 20 25 47 11 0 19 29 7 39 0 11 15 83-60 83-75 0-61-72-60-83-12-10-5-39 7-39 5-27 25-47 25-47 0 0 0-19-7-20-22-3-106-40-106-80l282 0c0 40-84 77-106 80m-144-6c17 10 36 19 52 25-5 8-12 19-16 32-6 5-10 12-13 20-3 8-4 17-3 25 0 6 2 12 5 17-2 17-3 50 19 75 8 9 19 16 32 20-2 24-14 52-61 52-75 0-60-73-60-83-12-11-4-39 7-39 5-27 25-47 25-47 0 0 0-19-7-20-22-4-106-40-106-80l121 0c2 1 4 2 5 3"/>
<glyph glyph-name="chair" unicode="&#57355;" d="M294 196c-8 1-8 22-8 22 0 0 23 22 27 52 13 0 21 31 8 42 1 12 17 92-65 92-82 0-66-80-65-92-13-11-5-42 8-42 5-30 27-52 27-52 0 0 0-21-8-22-24-4-116-44-116-88l308 0c0 44-92 84-116 88"/>
<glyph glyph-name="iphone" unicode="&#57356;" d="M334 435l-156 0c-19 0-34-15-34-33l0-292c0-18 15-33 34-33l156 0c19 0 34 15 34 33l0 292c0 18-15 33-34 33m-123-17l90 0 0-11-90 0z m45-319c-12 0-22 10-22 23 0 12 10 22 22 22 12 0 22-10 22-22 0-13-10-23-22-23m90 67l-180 0 0 224 180 0z"/>
<glyph glyph-name="independent" unicode="&#57357;" d="M333 410l0-22-44 0 0-264 44 0 0-22-154 0 0 22 44 0 0 264-44 0 0 22z"/>
<glyph glyph-name="independent-italic" unicode="&#57358;" d="M388 410l0-22-44 0-110-264 44 0 0-22-154 0 0 22 44 0 110 264-44 0 0 22z"/>
<glyph glyph-name="downloads-1" unicode="&#57359;" d="M356 251l-100-100-100 100 62 0 0 150 76 0 0-150z m-100-100l-188 0 0-40 376 0 0 40z"/>
<glyph glyph-name="snapshot-1" unicode="&#57360;" d="M51 141l410 0 0-51-410 0z m51 102l52 0 0-77-52 0z m77 103l51 0 0-180-51 0z m77-77l51 0 0-103-51 0z m77 153l51 0 0-256-51 0z"/>
<glyph glyph-name="arrow-up" unicode="&#57361;" d="M256 341l205-170-410 0"/>
<glyph glyph-name="arrow-down" unicode="&#57362;" d="M256 171l-205 170 410 0"/>
<glyph glyph-name="google-plus" unicode="&#57364;" d="M273 410l-95 0c-43 0-83-33-83-70 0-38 29-69 72-69 3 0 6 0 9 0-3-5-5-11-5-18 0-10 6-19 13-26-5 0-11 0-16 0-53 0-94-34-94-69 0-34 45-56 98-56 60 0 93 35 93 69 0 28-8 44-33 62-9 6-25 21-25 29 0 11 3 16 18 28 16 12 27 29 27 49 0 24-11 48-31 55l30 0z m-34-233c1-3 2-7 2-10 0-28-18-49-70-49-36 0-62 23-62 50 0 28 32 50 69 50 8 0 16-2 23-4 20-14 34-21 38-37m-58 103c-24 1-48 28-52 60-4 32 12 57 37 56 24-1 48-26 52-59 4-32-12-57-37-57m189 61l0 69-23 0 0-69-68 0 0-22 68 0 0-68 23 0 0 68 68 0 0 22z"/>
<glyph glyph-name="empty-file" unicode="&#57365;" d="M276 435c-5 5-14 9-20 9l-141 0c-6 0-12-6-12-12l0-352c0-6 6-12 12-12l282 0c6 0 12 6 12 12l0 211c0 7-4 16-9 20z m109-343l-258 0 0 328 129 0c1 0 3-1 4-1l123-124c1-1 2-3 2-4z m12 352l-71 0c-6 0-8-4-3-9l77-77c5-4 9-3 9 4l0 70c0 6-6 12-12 12"/>
<glyph glyph-name="empty-file-1" unicode="&#57366;" d="M400 371l-53 52c-11 11-34 21-50 21l-176 0c-16 0-29-13-29-30l0-316c0-17 13-30 29-30l270 0c16 0 29 13 29 30l0 223c0 16-9 38-20 50z m-74 39c2-1 3-2 5-4l52-52c1-1 2-3 3-4l-60 0 0 60z m71-312c0-4-3-6-6-6l-270 0c-3 0-6 2-6 6l0 316c0 4 3 6 6 6l176 0c2 0 4 0 6 0l0-94 93 0c1-2 1-4 1-5l0-223z"/>
<glyph glyph-name="print" unicode="&#57367;" d="M432 390l-352 0c-12 0-23-10-23-23l0-90c0-12 11-23 23-23l20 0c12 0 23 0 23 0 0 1 9 6 20 12l6 3c11 7 30 12 43 12l129 0c12 0 31-5 42-11l6-4c11-6 20-11 20-11 0-1 11-1 23-1l20 0c12 0 23 11 23 23l0 90c0 13-11 23-23 23z m-288-79l-21 0 0 23 21 0z m33 0l-21 0 0 23 21 0z m215 93c0 1 1 3 1 5 0 11-15 21-32 21l-199 0c-18 0-32-10-32-21 0-2 1-4 1-5z m3-164c0 0-5 3-12 6l0-35-70 0c-16 0-29-13-29-30l0-84-124 0c-12 0-22 10-22 22l0 126c-6-3-10-6-10-6 0 0-2 0-4 0l0-120c0-20 16-37 36-37l145 0 2 3 89 113 2 2 0 39c-2 1-3 1-3 1z"/>
<glyph glyph-name="printed-materials" unicode="&#57368;" d="M381 104c0-4-3-7-7-7l-236 0c-4 0-7 3-7 7l0 304c0 4 3 7 7 7l174 0c4 0 9-3 12-6l53-70c2-3 4-9 4-13z m-77 252c0 4-4 7-8 7l-120 0c-4 0-8-3-8-7 0-4 4-8 8-8l120 0c4 0 8 4 8 8z m40-213c0 4-4 7-8 7l-160 0c-4 0-8-3-8-7 0-4 4-7 8-7l160 0c4 0 8 3 8 7z m0 170c0 4-4 7-8 7l-160 0c-4 0-8-3-8-7 0-4 4-7 8-7l160 0c4 0 8 3 8 7z m0-43c0 4-4 8-8 8l-160 0c-4 0-8-4-8-8 0-4 4-7 8-7l160 0c4 0 8 3 8 7z m0-85c0 4-4 8-8 8l-160 0c-4 0-8-4-8-8 0-4 4-7 8-7l160 0c4 0 8 3 8 7z m0 43c0 4-4 7-8 7l-160 0c-4 0-8-3-8-7 0-4 4-7 8-7l160 0c4 0 8 3 8 7z"/>
<glyph glyph-name="rss" unicode="&#57369;" d="M187 145c0-23-19-42-42-42-23 0-42 19-42 42 0 24 19 42 42 42 23 0 42-18 42-42z m222-12c0 152-123 276-275 276-1 0-1 0-1 0 0 0 0 0 0 0-17 0-30-13-30-30 0-16 13-30 30-30l0 0c0 0 0 0 1 0 119 0 215-97 215-216 0 0 0 0 0 0 0-16 13-30 30-30 16 0 30 14 30 30l0 0 0 0c0 0 0 0 0 0z m-104-4c0 0 0 0 0 0 0 97-79 175-176 175 0 0 0 0-1 0l0 0c0 0 0 0 0 0-14 0-25-11-25-25 0-14 11-25 25-25 0 0 0 0 0 0l0 0c1 0 1 0 1 0 69 0 125-56 125-125 0 0 0 0 0 0l0 0c0-1 0-1 0-1 0-14 12-25 25-25 14 0 26 11 26 25 0 0 0 1 0 1z"/>
<glyph glyph-name="share" unicode="&#57370;" d="M163 124c1 0 1 0 1 0 0 0 1-1 1-1 0 0 0 0 1 0 25-18 56-29 90-29 63 0 118 38 143 92 1 0 1 0 1 1 0 0 1 1 1 1 2 5 4 9 5 14l65 0 0 54-55 0c0 0 0 0 0 0l-28 0c0 0 0 0 0 0l-27 0c0-9-1-18-3-26-12-46-53-80-102-80-22 0-43 7-60 19 0 0 0 0 0 0-4 3-10 5-16 5-15 0-27-13-27-28 0-9 4-16 10-22z m238 64l0 0c0 0 0 0 0 0z m-91 68c0 30-24 54-54 54-29 0-54-24-54-54 0-30 25-55 54-55 30 0 54 25 54 55z m39 132c-1 0-1 0-1 0 0 0-1 1-1 1 0 0 0 0-1 0-25 18-56 29-90 29-63 0-118-38-143-92-1 0-1 0-1-1 0 0-1-1-1-1-2-5-4-9-5-13l-65 0 0-55 55 0c0 0 0 0 0 0l28 0c0 0 0 0 1 0l26 0c0 9 1 18 3 26 12 46 53 80 102 80 22 0 43-7 60-19 0 0 0 0 0 0 4-3 10-5 16-5 15 0 27 13 27 28 0 9-4 17-10 22z m-238-64l0 0z"/>
<glyph glyph-name="snapshot" unicode="&#57371;" d="M176 228l-66 0c-7 0-13-6-14-15l0-139 94 0 0 139c0 9-7 15-14 15z m116 46l-66 0c-8 0-14-7-14-15l0-185 93 0 0 185c0 8-6 15-13 15z m120 61l-66 0c-8 0-14-7-14-15l0-246 93 0 0 246c0 8-6 15-13 15z m-93 103l-111 0 6-7 31-32c-1-18-17-37-45-54-32-21-77-23-114-28l-1 0 0 0c-7-2-14-2-14-2l-1-8c2 0 8-3 14-4 19-6 41-10 63-10 69 0 119 28 138 64l34-35z"/>
<glyph glyph-name="audio" unicode="&#57372;" d="M374 127c-5 0-10 1-13 5-8 8-8 20 0 27 52 53 52 139 0 191-8 8-8 20 0 27 7 8 19 8 27 0 33-32 51-76 51-122 0-46-18-90-51-123-4-4-9-5-14-5m-68 36c-5 0-10 2-14 6-7 7-7 19 0 27 33 32 33 85 0 118-7 7-7 20 0 27 8 8 20 8 27 0 48-47 48-125 0-172-3-4-8-6-13-6m-60 266c11 10 19 7 19-8l0-332c0-15-8-18-19-8l-96 97-65 0 0 154 65 0z"/>
<glyph glyph-name="tw-1" unicode="&#57373;" d="M432 365c-13-5-27-9-41-11 15 9 26 23 32 40-14-8-30-14-46-17-13 14-32 22-53 22-40 0-72-32-72-72 0-6 0-11 1-16-60 3-113 31-149 75-6-11-10-23-10-36 0-25 13-48 33-61-12 1-23 4-33 10 0-1 0-1 0-1 0-35 25-65 58-71-6-2-13-3-19-3-5 0-9 1-14 1 9-28 36-49 68-50-25-19-56-31-90-31-6 0-12 1-17 1 32-20 70-32 111-32 133 0 206 110 206 206 0 3-1 6-1 9 14 10 27 23 36 37"/>
<glyph glyph-name="google" unicode="&#57374;" d="M355 410l-95 0c-43 0-83-33-83-70 0-38 29-69 73-69 3 0 6 0 9 0-3-5-5-11-5-18 0-10 6-19 13-26-6 0-11 0-17 0-53 0-93-34-93-69 0-34 44-56 97-56 60 0 94 35 94 69 0 27-8 44-34 62-8 6-25 21-25 29 0 11 3 16 19 28 15 12 26 29 26 49 0 24-10 48-30 55l30 0z m-33-233c1-3 1-7 1-10 0-28-18-49-69-49-37 0-63 23-63 50 0 28 33 50 69 50 9 0 17-2 24-4 20-14 34-21 38-37m-58 103c-25 1-48 28-52 60-5 32 12 57 36 56 25-1 48-26 52-59 5-32-12-57-36-57"/>
<glyph glyph-name="xls" unicode="&#57375;" d="M341 303l-50 0-35-52-35 52-50 0 60-89-67-99 96 0 0 34-22 0 18 27 41-61 51 0-67 99z m59 68l-53 52c-11 11-34 21-50 21l-176 0c-16 0-29-13-29-30l0-316c0-17 13-30 29-30l270 0c16 0 29 13 29 30l0 223c0 16-9 38-20 50m-17-17c1-1 2-3 3-4l-60 0 0 60c2-1 3-2 5-4z m14-256c0-4-3-6-6-6l-270 0c-3 0-6 2-6 6l0 316c0 4 3 6 6 6l176 0c2 0 4 0 6 0l0-94 93 0c1-2 1-4 1-5l0-223z"/>
<glyph glyph-name="xbrl" unicode="&#57376;" d="M400 371l-53 52c-11 11-34 21-50 21l-176 0c-16 0-29-13-29-30l0-316c0-17 13-30 29-30l270 0c16 0 29 13 29 30l0 223c0 16-9 38-20 50m-17-17c1-1 2-3 3-4l-60 0 0 60c2-1 3-2 5-4z m14-256c0-4-3-6-6-6l-270 0c-3 0-6 2-6 6l0 316c0 4 3 6 6 6l176 0c2 0 4 0 6 0l0-94 93 0c1-2 1-4 1-5l0-223z m-90 206l0-32-29 0 0-124 29 0 0-32-102 0 0 32 29 0 0 124-29 0 0 32z"/>
<glyph glyph-name="xbrl-xml" unicode="&#57377;" d="M215 233l-23 23-70-70 70-71 23 24-46 47z m82-94l23-24 70 71-70 70-23-23 46-47z m103 232l-53 52c-11 11-34 21-50 21l-176 0c-16 0-29-13-29-30l0-316c0-17 13-30 29-30l270 0c16 0 29 13 29 30l0 223c0 16-9 38-20 50m-17-17c1-1 2-3 3-4l-60 0 0 60c2-1 3-2 5-4z m14-256c0-4-3-6-6-6l-270 0c-3 0-6 2-6 6l0 316c0 4 3 6 6 6l176 0c2 0 4 0 6 0l0-94 93 0c1-2 1-4 1-5l0-223z m-173 24l26-7c2-1 5 0 5 3l36 130c1 3 0 5-3 6l-26 7c-2 1-5-1-5-3l-36-131c-1-2 0-5 3-5"/>
<glyph glyph-name="xls-1" unicode="&#57378;" d="M139 256l70 0 0-23-70 0z m0-47l70 0 0-23-70 0z m0-47l70 0 0-23-70 0z m261 209l-53 52c-11 11-34 21-50 21l-176 0c-16 0-29-13-29-30l0-316c0-17 13-30 29-30l270 0c16 0 29 13 29 30l0 223c0 16-9 38-20 50m-17-17c1-1 2-3 3-4l-60 0 0 60c2-1 3-2 5-4z m14-256c0-4-3-6-6-6l-270 0c-3 0-6 2-6 6l0 316c0 4 3 6 6 6l176 0c2 0 4 0 6 0l0-94 93 0c1-2 1-4 1-5l0-223z m-118 88l70 0c-6-27-29-47-58-47-32 0-58 26-58 58 0 29 20 52 46 58z m36 93c32 0 58-26 58-58 0-4 0-8-1-12l-69 0 0 69c4 1 8 1 12 1"/>
<glyph glyph-name="zip" unicode="&#57379;" d="M221 397l35 0 0-24-35 0 0 24z m-35-24l35 0 0-23-35 0z m35-23l35 0 0-24-35 0 0 24z m-35-24l35 0 0-23-35 0z m35-23l35 0 0-24-35 0 0 24z m-35-24l35 0 0-23-35 0z m35-23l0-23-35 0 0-83c0-6 5-11 11-11l47 0c7 0 12 5 12 11l0 106z m23-94l-47 0 0 24 47 0z m156 209l-53 52c-11 11-34 21-50 21l-176 0c-16 0-29-13-29-30l0-316c0-17 13-30 29-30l270 0c16 0 29 13 29 30l0 223c0 16-9 38-20 50m-17-17c1-1 2-3 3-4l-60 0 0 60c2-1 3-2 5-4z m14-256c0-4-3-6-6-6l-270 0c-3 0-6 2-6 6l0 316c0 4 3 6 6 6l176 0c2 0 4 0 6 0l0-94 93 0c1-2 1-4 1-5l0-223z"/>
<glyph glyph-name="video-flash" unicode="&#57380;" d="M68 115l376 0 0 282-376 0z m71 24l-47 0 0 47 47 0z m0 94l-47 0 0 46 47 0z m0 93l-47 0 0 47 47 0z m211-187l-188 0 0 234 188 0z m70 0l-47 0 0 47 47 0z m0 94l-47 0 0 46 47 0z m0 93l-47 0 0 47 47 0z m-211 0l0-140 94 70z"/>
<glyph glyph-name="video" unicode="&#57381;" d="M209 338c0-32 26-59 59-59 32 0 58 27 58 59 0 33-26 59-58 59-33 0-59-26-59-59m-141 0c0-32 27-59 59-59 32 0 59 27 59 59 0 33-27 59-59 59-32 0-59-26-59-59m282-117l0 35c0 13-11 23-24 23l-234 0c-13 0-24-10-24-23l0-117c0-13 11-24 24-24l234 0c13 0 24 11 24 24l0 35 94-59 0 164z m-47-59l-188 0 0 71 188 0z"/>
<glyph glyph-name="mp3" unicode="&#57382;" d="M186 373l258 71 0-270c0-33-37-59-82-59-46 0-83 26-83 59 0 32 37 59 83 59 12 0 24-2 35-6l0 121-164-45 0-176c0-32-37-59-83-59-45 0-82 27-82 59 0 32 37 59 82 59 13 0 25-2 36-6l0 193z"/>
<glyph glyph-name="chairman-1" unicode="&#57383;" d="M384 336l-88 13-40 80-40-80-88-13 64-62-15-89 79 42 79-42-15 89z m-128-89l-56-30 11 63-45 44 62 9 28 56 28-56 62-9-45-44 11-63z"/>
<glyph glyph-name="chairman" unicode="&#57384;" d="M384 336l-88 13-40 80-40-80-88-13 64-62-15-89 79 42 79-42-15 89z"/>
<glyph glyph-name="html" unicode="&#57385;" d="M400 371l-53 52c-11 11-34 21-50 21l-176 0c-16 0-29-13-29-30l0-316c0-17 13-30 29-30l270 0c16 0 29 13 29 30l0 223c0 16-9 38-20 50z m-74 39c2-1 3-2 5-4l52-52c1-1 2-3 3-4l-60 0 0 60z m71-312c0-4-3-6-6-6l-270 0c-3 0-6 2-6 6l0 316c0 4 3 6 6 6l176 0c2 0 4 0 6 0l0-94 93 0c1-2 1-4 1-5l0-223z m-133 138c-1 1-3 3-5 4l-3 2-23-22 5-3c2-1 3-2 5-3l0-1c4-4 7-10 7-16 0-5-3-11-7-15l-43-44c-9-8-23-8-31 0l-1 1c-4 4-7 10-7 16 0 6 3 11 7 15l22 22-1 2c-4 8-5 17-5 25l0 11-38-38c-20-21-20-54 0-75l1 0c10-10 23-16 37-16 14 0 28 6 37 16l44 43c10 10 15 23 15 37 0 15-5 28-15 38z m64 63c-10 10-23 16-37 16-14 0-28-6-38-16l-43-43c-10-10-16-24-16-38 0-14 6-27 16-37l1-1c1-1 3-3 5-4l3-3 22 23-4 3c-2 1-3 2-5 3l0 1c-9 8-9 22 0 31l43 43c8 9 23 9 31 0l1 0c9-9 9-23 0-31l-22-22 1-3c4-8 5-16 5-25l0-10 38 38c10 10 15 23 15 37 0 14-5 27-15 37z"/>
<glyph glyph-name="briefcase" unicode="&#57386;" d="M420 362l-94 0 0 23c0 13-10 24-23 24l-94 0c-13 0-23-11-23-24l0-23-94 0c-13 0-24-11-24-24l0-211c0-13 11-24 24-24l328 0c13 0 24 11 24 24l0 211c0 13-11 24-24 24m-211 23c0 0 0 0 0 0l94 0c0 0 0 0 0 0l0-23-94 0z m117-117l-140 0m-47 44l-47 0 0 15 328 0 0-15-47 0m-36-42c0-9-8-16-17-16l-128 0c-9 0-17 7-17 16 0 9 8 16 17 16l128 0c9 0 17-7 17-16z"/>
<glyph glyph-name="briefcase-add" unicode="&#57387;" d="M420 362l-94 0 0 23c0 13-10 24-23 24l-94 0c-13 0-23-11-23-24l0-23-94 0c-13 0-24-11-24-24l0-211c0-13 11-24 24-24l328 0c13 0 24 11 24 24l0 211c0 13-11 24-24 24m-211 23c0 0 0 0 0 0l94 0c0 0 0 0 0 0l0-23-94 0z m117-117l-140 0m-47 44l-47 0 0 15 328 0 0-15-47 0m53-127l-64 0 0-64-30 0 0 64-64 0 0 30 64 0 0 64 30 0 0-64 64 0z"/>
<glyph glyph-name="briefcase-remove" unicode="&#57388;" d="M420 362l-94 0 0 23c0 13-10 24-23 24l-94 0c-13 0-23-11-23-24l0-23-94 0c-13 0-24-11-24-24l0-211c0-13 11-24 24-24l328 0c13 0 24 11 24 24l0 211c0 13-11 24-24 24m-211 23c0 0 0 0 0 0l94 0c0 0 0 0 0 0l0-23-94 0z m117-117l-140 0m-47 44l-47 0 0 15 328 0 0-15-47 0m41-67l-46-45 46-46-22-21-45 46-45-46-21 21 45 46-45 45 21 21 45-45 45 45z"/>
<glyph glyph-name="briefcase-added" unicode="&#57389;" d="M420 362l-94 0 0 23c0 13-10 24-23 24l-94 0c-13 0-23-11-23-24l0-23-94 0c-13 0-24-11-24-24l0-211c0-13 11-24 24-24l328 0c13 0 24 11 24 24l0 211c0 13-11 24-24 24z m-211 23c0 0 0 0 0 0l94 0c0 0 0 0 0 0l0-23-94 0z m-117-73l0 15 328 0 0-15z m207-190l-77 77 32 6 45-44 96 96 32-7z"/>
<glyph glyph-name="downloads-2" unicode="&#57390;" d="M397 256l-59 0-82-82-82 82-59 0-47-94 0-23 376 0 0 23z m-329-141l376 0 0-23-376 0z m211 211l0 94-46 0 0-94-83 0 106-105 106 105z"/>
<glyph glyph-name="plus" unicode="&#57392;" d="M368 286l-82 0 0 82c0 4-3 7-8 7l-44 0c-5 0-8-3-8-7l0-82-82 0c-4 0-7-3-7-8l0-44c0-5 3-8 7-8l82 0 0-82c0-4 3-8 8-8l44 0c5 0 8 4 8 8l0 82 82 0c4 0 8 3 8 8l0 44c-1 5-4 8-8 8"/>
<glyph glyph-name="minus" unicode="&#57393;" d="M137 278l0-44c0-5 3-8 7-8l224 0c4 0 7 3 7 8l0 44c0 5-3 8-7 8l-224 0c-4 0-7-3-7-8"/>
<glyph glyph-name="calculator" unicode="&#57394;" d="M355 382l0 0-198 0c-11 0-19-9-19-21l0-136 0 0 0-128c0-12 8-21 19-21l198 0c11 0 19 9 19 21 0 0 0 246 0 264 0 19-19 21-19 21z m-145-271l-23 0c-6 0-11 5-11 11 0 7 5 12 11 12l23 0c6 0 11-5 11-12 0-6-5-11-11-11z m0 50l-23 0c-6 0-11 5-11 11 0 7 5 12 11 12l23 0c6 0 11-5 11-12 0-6-5-11-11-11z m0 50l-23 0c-6 0-11 5-11 11 0 6 5 11 11 11l23 0c6 0 11-5 11-11 0-6-5-11-11-11z m57-100l-22 0c-6 0-11 5-11 11 0 7 5 12 11 12l22 0c6 0 11-5 11-12 0-6-5-11-11-11z m0 50l-22 0c-6 0-11 5-11 11 0 7 5 12 11 12l22 0c6 0 11-5 11-12 0-6-5-11-11-11z m0 50l-22 0c-6 0-11 5-11 11 0 6 5 11 11 11l22 0c6 0 11-5 11-11 0-6-5-11-11-11z m58-100l-23 0c-6 0-11 5-11 11 0 7 5 12 11 12l23 0c6 0 11-5 11-12 0-6-5-11-11-11z m0 50l-23 0c-6 0-11 5-11 11 0 7 5 12 11 12l23 0c6 0 11-5 11-12 0-6-5-11-11-11z m0 50l-23 0c-6 0-11 5-11 11 0 6 5 11 11 11l23 0c6 0 11-5 11-11 0-6-5-11-11-11z m15 68l-168 0 0 75 168 0z"/>
<glyph glyph-name="arrow-right-dots-long" unicode="&#57395;" d="M393 239l-35 0 0-34-34 0 0-34-34 0 0 34 34 0 0 34 34 0 0 34-34 0 0 34-34 0 0 34 34 0 0-34 34 0 0-34 35 0z m-103 102l-34 0 0 34 34 0 0-34m0-204l-34 0 0 34 34 0 0-34m33 102l-34 0 0 34 34 0 0-34m-33 34l-34 0 0 34 34 0 0-34m-1-68l-34 0 0 34 34 0 0-34m-33 34l-34 0 0 34 34 0 0-34m-34 34l-34 0 0 34 34 0 0-34m0-68l-34 0 0 34 34 0 0-34m-34 34l-34 0 0 34 34 0 0-34m-34 34l-35 0 0 34 35 0 0-34m0-68l-35 0 0 34 35 0 0-34"/>
<glyph glyph-name="arrow-left-dots-long" unicode="&#57396;" d="M119 273l35 0 0 34 34 0 0 34 34 0 0-34-34 0 0-34-34 0 0-34 34 0 0-34 34 0 0-34-34 0 0 34-34 0 0 34-35 0z m103-102l34 0 0-34-34 0 0 34m0 204l34 0 0-34-34 0 0 34m-33-102l34 0 0-34-34 0 0 34m33-34l34 0 0-34-34 0 0 34m1 68l34 0 0-34-34 0 0 34m33-34l34 0 0-34-34 0 0 34m34-34l34 0 0-34-34 0 0 34m0 68l34 0 0-34-34 0 0 34m34-34l34 0 0-34-34 0 0 34m34-34l35 0 0-34-35 0 0 34m0 68l35 0 0-34-35 0 0 34"/>
<glyph glyph-name="arrow-left-dots" unicode="&#57397;" d="M187 273l34 0 0 34 34 0 0 34 34 0 0-34-34 0 0-34-34 0 0-34 34 0 0-34 34 0 0-34-34 0 0 34-34 0 0 34-34 0z m102-102l35 0 0-34-35 0 0 34m0 204l35 0 0-34-35 0 0 34m-32-102l34 0 0-34-34 0 0 34m32-34l35 0 0-34-35 0 0 34m2 68l34 0 0-34-34 0 0 34"/>
<glyph glyph-name="arrow-right-dots" unicode="&#57398;" d="M325 239l-34 0 0-34-34 0 0-34-34 0 0 34 34 0 0 34 34 0 0 34-34 0 0 34-34 0 0 34 34 0 0-34 34 0 0-34 34 0z m-102 102l-35 0 0 34 35 0 0-34m0-204l-35 0 0 34 35 0 0-34m32 102l-34 0 0 34 34 0 0-34m-32 34l-35 0 0 34 35 0 0-34m-2-68l-34 0 0 34 34 0 0-34"/>
<glyph glyph-name="video-play-btn" unicode="&#57399;" d="M405 435l-298 0c-50 0-90-40-90-89l0-180c0-49 40-89 90-89l298 0c50 0 90 40 90 89l0 180c0 49-40 89-90 89m60-269c0-16-6-30-18-42-11-11-26-17-42-17l-298 0c-16 0-31 6-42 17-12 12-18 26-18 42l0 180c0 15 6 30 18 42 11 11 26 17 42 17l298 0c16 0 31-6 42-17 12-12 18-27 18-42z m-269-29l150 119-150 119z"/>
<glyph glyph-name="video-play-btn-1" unicode="&#57400;" d="M256 495c-132 0-239-107-239-239 0-132 107-239 239-239 132 0 239 107 239 239 0 132-107 239-239 239m0-433c-107 0-194 87-194 194 0 107 87 194 194 194 107 0 194-87 194-194 0-107-87-194-194-194m-60 299l179-105-179-105z"/>
<glyph glyph-name="search" unicode="&#57401;" d="M376 166l-61 52c-6 5-13 8-18 8 14 16 23 38 23 62 0 53-43 96-96 96-53 0-96-43-96-96 0-53 43-96 96-96 24 0 46 9 62 23 0-5 3-12 8-18l52-61c9-10 23-11 32-2 9 9 8 23-2 32m-152 58c-35 0-64 29-64 64 0 35 29 64 64 64 35 0 64-29 64-64 0-35-29-64-64-64"/>
<glyph glyph-name="feedback-1" unicode="&#57402;" d="M256 416c94 0 171-62 171-139 0-76-77-138-171-138-9 0-18 0-27 1-36-36-80-43-122-44l0 9c23 11 42 32 42 55 0 3 0 6 0 10-39 25-64 64-64 107 0 77 77 139 171 139"/>
<glyph glyph-name="calendar" unicode="&#57403;" d="M388 388l-33 0 0-11c0-12-10-22-22-22-12 0-22 10-22 22l0 11-110 0 0-11c0-12-10-22-22-22-12 0-22 10-22 22l0 11-33 0c-12 0-22-10-22-22l0-242c0-12 10-22 22-22l264 0c12 0 22 10 22 22l0 242c0 12-10 22-22 22m0-264c0 0 0 0 0 0l-264 0c0 0 0 0 0 0l0 198 264 0z m-209 242c6 0 11 5 11 11l0 44c0 6-5 11-11 11-6 0-11-5-11-11l0-44c0-6 5-11 11-11m154 0c6 0 11 5 11 11l0 44c0 6-5 11-11 11-6 0-11-5-11-11l0-44c0-6 5-11 11-11m-55-66l-110 0 0-22 88 0 0-44-88 0 0-22 88 0 0-44-88 0 0-22 110 0z m44-154l22 0 0 154-44 0 0-22 22 0z m57-52l-246 0c-12 0-22 7-22 19l0-11c0-12 10-22 22-22l246 0c12 0 22 10 22 22l0 11c0-12-10-19-22-19"/>
<glyph glyph-name="calendar-1" unicode="&#57404;" d="M205 297l41 0 0-41-41 0z m61 0l41 0 0-41-41 0z m62 0l41 0 0-41-41 0z m-185-123l41 0 0-41-41 0z m62 0l41 0 0-41-41 0z m61 0l41 0 0-41-41 0z m-61 62l41 0 0-41-41 0z m61 0l41 0 0-41-41 0z m62 0l41 0 0-41-41 0z m-185 0l41 0 0-41-41 0z m226 184l0-21-41 0 0 21-144 0 0-21-41 0 0 21-41 0 0-328 308 0 0 328z m20-307l-266 0 0 225 266 0z"/>
<glyph glyph-name="mic" unicode="&#57405;" d="M331 297l0-48c0-33-28-61-61-61l-28 0c-33 0-61 28-61 61l0 48-27 0 0-48c0-48 40-89 88-89l0-47-58 0 0-28 144 0 0 28-58 0 0 47c48 0 88 41 88 89l0 48z m-89-89l28 0c19 0 36 16 40 34l-41 0 0 14 42 0 0 14-42 0 0 13 42 0 0 14-42 0 0 14 42 0 0 13-42 0 0 14 42 0 0 14-42 0 0 13 42 0 0 14-42 0 0 14 41 0c-4 18-21 34-40 34l-28 0c-21 0-41-19-41-41l0-137c0-22 20-41 41-41z"/>
<glyph glyph-name="mic-1" unicode="&#57406;" d="M387 306c-24 4-46 15-63 33-18 17-29 39-33 63 23 15 58 9 81-14 24-24 29-58 15-82z m-17-17c-22 7-43 18-60 36-18 17-29 38-36 60-14-23-9-58 15-81 23-24 58-29 81-15z m-94-105c-29 0-50-18-69-35-21-18-38-33-65-25-5 4-5 7-5 8-1 7 8 17 12 20 1 1 1 1 2 2 6-3 14-1 20 4l135 111c-12 5-22 11-31 21-10 9-17 20-21 31l-111-135c-5-5-6-12-5-18 0 0-1 0-1-1-2-1-21-17-20-36 0-7 3-16 15-24l3-1c7-3 15-4 21-4 27 0 46 17 64 33 18 15 34 29 56 29 51 0 91-54 91-55 3-4 9-5 14-2 4 3 5 9 2 14-2 2-45 63-107 63z"/>
<glyph glyph-name="outlook" unicode="&#57407;" d="M242 278l25 0 0-26-25 0z m0-39l25 0 0-25-25 0z m42 0l25 0 0-25-25 0z m-42-38l0-103-116 0 0 116 103 0 0 25-105 0c-13 0-23-10-23-23l0-120c0-13 10-23 23-23l120 0c13 0 23 10 23 23l0 105-25 0z m169 38l-89 0 0-25 84 0 0-97-97 0 0 84-25 0 0-89c0-11 9-20 21-20l106 0c12 0 21 9 21 20l0 107c0 11-9 20-21 20z m-15 143l-94 0c-10 0-18-8-18-18l0-74 25 0 0 66 79 0 0-78-66 0 0-26 74 0c10 0 18 8 18 18l0 94c0 10-8 18-18 18z m-167-104l-123 0 0 135 135 1 1-124 25 0 0 123c0 15-11 26-26 26l-135 0c-14 0-26-11-26-26l0-135c0-14 12-26 26-26l123 0z m55 0l25 0 0-26-25 0z"/>
<glyph glyph-name="reminder" unicode="&#57408;" d="M318 158l-3 0c-26 0-47 21-47 47l0 77c0 26 21 47 47 47l3 0c25 0 46-21 46-47l0-77c0-26-21-47-46-47z m-3 145c-12 0-22-10-22-21l0-77c0-12 10-21 22-21l3 0c11 0 21 9 21 21l0 77c0 11-10 21-21 21z m74-178l-3 0c-26 0-47 21-47 47l0 77c0 26 21 47 47 47l3 0c26 0 47-21 47-47l0-77c0-26-21-47-47-47z m-3 145c-12 0-22-9-22-21l0-77c0-11 10-21 22-21l3 0c11 0 21 10 21 21l0 77c0 12-10 21-21 21z m-16-220l-113 0c-36 0-65 28-66 63-33 25-69 42-109 52-23 6-39 29-35 53l1 8c3 21 23 37 47 37 4 0 9-1 13-2 29-7 57-17 83-30l0 169c0 26 21 47 47 47l8 0c26 0 47-21 47-47l0-195c0-12 10-21 22-21l2 0c12 0 22 9 22 21l25 0 0-33c0-11 10-21 22-21l3 0c11 0 21 10 21 21l26 0 0-57c0-36-30-65-66-65z m-275 187c-11 0-20-6-22-15l-1-8c-2-11 5-22 16-24 45-12 87-32 124-60l5-4 0-11c0-22 17-40 40-40l113 0c22 0 40 18 40 40l0 16c-6-4-14-6-21-6l-3 0c-23 0-42 17-46 39-7-4-14-6-22-6l-3 0c-26 0-47 21-47 47l0 195c0 12-10 21-22 21l-8 0c-12 0-21-9-21-21l0-212-19 11c-30 16-63 29-96 37-2 1-5 1-7 1z m104 94l-5 1c-6-19-43-43-64-40-6 1-11 3-11 15 0 30 39 42 73 47 2-1 4-1 7-1l0 18c-3 0-5 0-7 0-34 4-73 16-73 46 0 12 5 15 11 15 21 3 58-20 64-40l5 2 0 23c-18 20-49 35-71 32-17-2-26-14-26-32 0-29 22-46 50-55-28-9-50-25-50-55 0-18 9-30 26-32 2 0 3 0 5 0 22 0 50 14 66 32l0 24z m82 31c21 11 34 25 35 26l-12 11c-1 0-12-11-29-20l0-33c17-9 28-21 29-21l12 12c-1 0-14 15-35 25z"/>
<glyph glyph-name="arrow-right" unicode="&#57409;" d="M196 128l120 128-120 128z"/>
<glyph glyph-name="arrow-up-1" unicode="&#57410;" d="M384 196l-128 120-128-120z"/>
<glyph glyph-name="arrow-left" unicode="&#57411;" d="M316 384l-120-128 120-128z"/>
<glyph glyph-name="arrow-down-1" unicode="&#57412;" d="M128 316l128-120 128 120z"/>
<glyph glyph-name="arrow-45" unicode="&#57413;" d="M122 212l175 0 0 158z"/>
<glyph glyph-name="close" unicode="&#57363;" d="M357 194l-63 62 63 62c0 1 1 2 1 2 1 3 0 5-1 7l-30 30c-2 1-4 2-7 1 0 0-1-1-2-1l-62-63-62 63c-1 0-2 1-2 1-3 1-5 0-7-1l-30-30c-1-2-2-4-1-7 0 0 1-1 1-2l63-62-63-62c0-1-1-2-1-2-1-3 0-5 1-7l30-30c2-1 4-2 7-1 0 0 1 1 2 1l62 63 62-63c1 0 2-1 2-1 3-1 5 0 7 1l30 30c1 2 2 4 1 7 0 0-1 1-1 2"/>
<glyph glyph-name="calculator-1" unicode="&#57391;" d="M316 230c-10 0-17-7-17-17 0-9 7-17 17-17 9 0 17 8 17 17 0 10-8 17-17 17z m0 52c-10 0-17-8-17-17 0-10 7-18 17-18 9 0 17 8 17 18 0 9-8 17-17 17z m-60-52c-9 0-17-7-17-17 0-9 8-17 17-17 9 0 17 8 17 17 0 10-8 17-17 17z m0 52c-9 0-17-8-17-17 0-10 8-18 17-18 9 0 17 8 17 18 0 9-8 17-17 17z m-60 42l120 0c9 0 17 8 17 17 0 10-8 17-17 17l-120 0c-9 0-17-7-17-17 0-9 8-17 17-17z m0-179c10 0 17 8 17 17 0 10-7 17-17 17-9 0-17-7-17-17 0-9 8-17 17-17z m162 282l-204 0c-19 0-35-16-35-34l0-274c0-18 16-34 35-34l204 0c19 0 35 16 35 34l0 274c0 18-16 34-35 34z m9-316l-222 0 0 290 222 0z m-111 68c-9 0-17-7-17-17 0-9 8-17 17-17 9 0 17 8 17 17 0 10-8 17-17 17z m-60 17c10 0 17 8 17 17 0 10-7 17-17 17-9 0-17-7-17-17 0-9 8-17 17-17z m0 51c10 0 17 8 17 18 0 9-7 17-17 17-9 0-17-8-17-17 0-10 8-18 17-18z m120-68c-10 0-17-7-17-17 0-9 7-17 17-17 9 0 17 8 17 17 0 10-8 17-17 17z"/>
<glyph glyph-name="close-1" unicode="&#57414;" d="M256 444c-104 0-188-84-188-188 0-104 84-188 188-188 104 0 188 84 188 188 0 104-84 188-188 188z m0-351c-90 0-163 73-163 163 0 90 73 163 163 163 90 0 163-73 163-163 0-90-73-163-163-163z m69 250l-69-69-61 69c-5 5-13 5-18 0-5-5-5-13 0-18l62-69-70-69c-5-5-5-13 0-18 5-5 13-5 18 0l69 69 61-69c5-5 13-5 18 0 5 5 5 13 0 18l-62 69 70 69c5 5 5 13 0 18-5 5-13 5-18 0z"/>
<glyph glyph-name="arrow-left-1" unicode="&#57415;" d="M162 419c-90-52-120-167-69-257 52-90 167-120 257-69 90 52 120 167 69 257-52 90-167 120-257 69z m224-88c42-72 17-164-55-205-72-42-164-17-205 55-42 72-17 164 55 205 72 41 164 17 205-55z m-173-62c-4-3-6-8-6-13 0-5 2-10 6-13l53-53c7-8 19-8 27 0l0 0c7 7 7 19 0 26l-40 40 40 40c7 7 7 19 0 26l0 0c-8 8-20 8-27 0z"/>
<glyph glyph-name="arrow-up-45" unicode="&#57416;" d="M437 207c27 101-32 203-132 230-101 27-203-32-230-132-27-101 32-203 132-230 101-27 204 32 230 132z m-220-96c-80 21-127 104-106 184 21 80 104 128 184 106 80-21 128-104 106-184-21-80-104-128-184-106z m79 166c0 5-2 10-6 13-3 4-8 6-13 6l-75 0c-10 0-19-9-19-19l0 0c0-10 9-19 19-19l56 0 0-56c0-10 9-19 19-19l0 0c10 0 19 9 19 19z"/>
<glyph glyph-name="arrow-up-2" unicode="&#57417;" d="M419 350c-52 90-167 120-257 69-90-52-120-167-69-257 52-90 167-120 257-69 90 52 120 167 69 257z m-88-224c-72-42-164-17-205 55-42 72-17 164 55 205 72 42 164 17 205-55 42-72 17-164-55-205z m-62 173c-3 4-8 6-13 6-5 0-10-2-13-6l-53-53c-8-7-8-19 0-27l0 0c7-7 19-7 26 0l40 40 40-40c7-7 19-7 26 0l0 0c8 8 8 20 0 27z"/>
<glyph glyph-name="arrow-down-2" unicode="&#57418;" d="M93 162c52-90 167-120 257-69 90 52 120 167 69 257-52 90-167 120-257 69-90-52-120-167-69-257z m88 224c72 42 164 17 205-55 42-72 17-164-55-205-72-42-164-17-205 55-42 72-17 164 55 205z m62-173c3-4 8-6 13-6 5 0 10 2 13 6l53 53c8 7 8 19 0 27l0 0c-7 7-19 7-26 0l-40-40-40 40c-7 7-19 7-26 0l0 0c-8-8-8-20 0-27z"/>
<glyph glyph-name="arrow-right-1" unicode="&#57419;" d="M350 93c90 52 120 167 69 257-52 90-167 120-257 69-90-52-120-167-69-257 52-90 167-120 257-69z m-224 88c-42 72-17 164 55 205 72 42 164 17 205-55 42-72 17-164-55-205-72-42-164-17-205 55z m173 62c4 3 6 8 6 13 0 5-2 10-6 13l-53 53c-7 8-19 8-27 0l0 0c-7-7-7-19 0-26l40-40-40-40c-7-7-7-19 0-26l0 0c8-8 20-8 27 0z"/>
<glyph glyph-name="arrow-down-45" unicode="&#57420;" d="M207 75c101-27 203 32 230 132 27 101-32 203-132 230-101 27-203-32-230-132-27-101 32-204 132-230z m-96 220c21 80 104 128 184 106 80-21 128-104 106-184-21-80-104-128-184-106-80 21-127 104-106 184z m166-79c5 0 10 2 13 6 4 3 6 8 6 13l0 75c0 10-9 19-19 19l0 0c-10 0-19-9-19-19l0-56-56 0c-10 0-19-9-19-19l0 0c0-10 9-19 19-19z"/>
<glyph glyph-name="arrow-right-2" unicode="&#57421;" d="M347 264l-165 165c-2 2-5 3-8 3-3 0-6-1-8-3l-1 0c-2-3-3-6-3-9l0-79c0-4 1-6 3-9l77-76-76-76c-3-3-4-5-4-9l0-79c0-4 1-6 3-9l1 0c2-2 5-3 8-3 3 0 6 1 8 3l165 165c4 4 4 12 0 16z"/>
<glyph glyph-name="arrow-up-45-1" unicode="&#57422;" d="M314 442l-233 0c-3 0-6-1-8-3-2-2-3-5-3-8l0-1c0-3 1-6 3-8l57-56c2-2 5-4 8-4l108 0 0-108c0-3 1-6 3-8l57-56c2-3 5-4 8-4l0 0c3 0 6 1 8 4 3 2 4 5 4 8l0 233c0 6-5 11-12 11z"/>
<glyph glyph-name="arrow-down-45-1" unicode="&#57423;" d="M326 198l0 233c0 3-2 6-4 8-2 2-5 3-8 3l0 0c-3 0-6-1-8-3l-57-57c-2-2-3-5-3-8l0-108-108 0c-3 0-6-1-8-3l-57-57c-2-2-3-5-3-8l0 0c0-3 1-6 3-8 3-3 5-4 8-4l233 0c7 0 12 5 12 12z"/>
<glyph glyph-name="arrow-down-3" unicode="&#57424;" d="M264 165l165 165c2 2 3 5 3 8 0 3-1 6-3 8l0 1c-3 2-6 3-9 3l-79 0c-4 0-6-1-9-3l-76-77-76 76c-3 3-5 4-9 4l-79 0c-4 0-6-1-9-3l0-1c-2-2-3-5-3-8 0-3 1-6 3-8l165-165c4-4 12-4 16 0z"/>
<glyph glyph-name="arrow-left-2" unicode="&#57425;" d="M165 248l165-165c2-2 5-3 8-3 3 0 6 1 8 3l1 0c2 3 3 6 3 9l0 80c0 3-1 5-3 8l-77 76 76 76c3 3 4 5 4 9l0 79c0 4-1 6-4 9l0 0c-2 2-5 3-8 3-3 0-6-1-8-3l-165-165c-4-4-4-12 0-16z"/>
<glyph glyph-name="arrow-up-3" unicode="&#57426;" d="M248 347l-165-165c-2-2-3-5-3-8 0-3 1-6 3-8l0-1c3-2 6-3 9-3l79 0c4 0 6 1 9 3l76 77 76-76c3-3 5-4 9-4l79 0c4 0 6 1 9 4l0 0c2 2 3 5 3 8 0 3-1 6-3 8l-165 165c-4 4-12 4-16 0z"/>
<glyph glyph-name="downloads-3" unicode="&#57427;" d="M256 242l111 111-83 0 0 111-56 0 0-111-83 0z m0-194l222 83 0 111-121 46-31-32 112-42-182-68-182 68 112 42-31 32-121-46 0-111 222-83"/>
<glyph glyph-name="printed-materials-1" unicode="&#57428;" d="M291 422l-163 0 0-332 256 0 0 235z m4-43l44-46-44 0z m-140-262l0 278 120 0 0-82 82 0 0-196z m173 167l-144 0 0 14 144 0z m0-56l-144 0 0 14 144 0z m0-56l-144 0 0 14 144 0z"/>
<glyph glyph-name="html-1" unicode="&#57429;" d="M423 291l-34-35c-22-22-54-26-80-14l80 80c9 9 9 24 0 33l-34 34c-9 9-24 9-33 0l-79-80c-13 26-9 58 13 80l35 34c27 28 72 28 99 0l33-33c28-27 28-72 0-99z m-233-101c-9 9-9 24 0 33l99 99c9 9 24 9 33 0 9-9 9-24 0-33l-99-99c-9-9-24-9-33 0z m-67-33l34-34c9-9 24-9 33 0l80 80c12-26 8-58-14-80l-32-34c-27-28-72-28-99 0l-36 36c-28 27-28 72 0 99l34 32c22 22 54 26 80 14l-80-80c-9-9-9-24 0-33z"/>
<glyph glyph-name="reminder-1" unicode="&#57430;" d="M288 437c100 0 181-81 181-181 0-100-81-181-181-181l0 39c38 0 74 15 101 41 27 27 42 63 42 101 0 38-15 74-42 101-27 26-63 41-101 41-38 0-73-15-100-41-21-21-34-47-40-75l76 0-91-104-90 104 66 0c13 88 88 155 179 155z m78-155l0-52-104 0 0 129 52 0 0-77z"/>
<glyph glyph-name="printed-materials-2" unicode="&#57431;" d="M196 331l183 0c10 0 17-5 17-14 0-9-7-14-17-14l-183 0c-9 0-17 5-17 14 0 9 8 14 17 14z m0-67l214 0c9 0 17-4 17-14 0-9-11-13-20-13l-214 0c-9 0-14 4-14 13 0 10 8 14 17 14z m0-66l158 0c10 0 17-5 17-14 0-10-7-14-17-14l-158 0c-9 0-17 4-17 14 0 9 8 14 17 14z m-98-1l19-16 34 42 15-17-42-50-12 0-27 26 0 15z m2 67l19-17 34 42 15-16-42-50-12 0-27 26 0 15z m0 67l19-17 34 42 15-17-42-50-12 0-27 27 0 15 13 0z"/>
<glyph glyph-name="xls-2" unicode="&#57433;" d="M314 371l-246 0 0-230 376 0 0 230z m0-111l-116 0 0 48 116 0z m-238 103l115 0 0-48-115 0z m0-55l115 0 0-48-115 0z m0-56l115 0 0-48-115 0z m0-103l0 48 115 0 0-48z m122 0l0 48 116 0 0-48z m238 0l-115 0 0 48 115 0z m0 111l-115 0 0 48 115 0z m-115 55l0 48 115 0 0-48z"/>
<glyph glyph-name="rss-1" unicode="&#57434;" d="M427 85l-49 0c0 162-131 293-293 293l0 49c188 0 342-153 342-342z m-98 0l-49 0c0 108-87 195-195 195l0 49c135 0 244-109 244-244z m-97 0l-49 0c0 54-44 98-98 98l0 49c81 0 147-66 147-147z m-98 0c0 27-22 49-49 49l0-49z"/>
<glyph glyph-name="word-1" unicode="&#57432;" d="M329 350l25 0-29-130-38 182-61 0-44-182-33 182-64 0 65-292 62 0 44 173 39-173 57 0 75 292-98 0z"/>
<glyph glyph-name="xls-3" unicode="&#57435;" d="M389 403l-78 0-55-81-55 81-78 0 93-139-105-155 151 0 0 52-35 0 29 43 64-95 81 0-105 155z"/>
<glyph glyph-name="pdf-1" unicode="&#57436;" d="M424 177c-12 22-66 36-113 38-4 5-8 10-13 15-40 46-56 113-62 148-1 8-2 14-3 19 0 4-1 11-9 11-3 0-5-1-7-3-3-3-3-7-2-11 1-4 1-11 3-18 3-36 5-105-23-159-3-6-6-11-9-16-52-16-94-43-100-65-2-8 0-16 6-22 6-7 14-10 23-10 25 0 53 27 83 81 14 4 28 6 41 8 5 0 13 1 18 2 14 2 30 3 46 2 38-39 69-59 92-59 12 0 23 6 29 17 4 7 4 15 0 22z m-309-55c-4 0-7 1-10 5-2 1-2 2-1 4 3 12 29 32 68 46-22-35-43-55-57-55z m139 91c-4-1-12-2-17-2-9-1-18-3-27-5 0 1 1 2 1 3 14 26 22 59 25 95 13-35 29-64 49-86 0-1 1-2 2-2-12-1-23-2-33-3z m154-49c-3-5-7-8-13-8l0 0c-15 0-37 14-64 39 41-5 72-17 77-27 1-2 1-2 0-4z"/>
<glyph glyph-name="xbrl-1" unicode="&#57437;" d="M204 171l-121 67 0 37 121 66 0-44-84-40 84-43z m2-23l80 216 26 0-81-216z m105 23l0 43 85 42-85 42 0 43 122-67 0-36z"/>
<glyph glyph-name="plus-1" unicode="&#57438;" d="M85 427l0-342 223 0 119 119 0 223-342 0z m184-238l-26 0 0 54-54 0 0 26 54 0 0 54 26 0 0-54 54 0 0-26-54 0z m36-96l0 114 114 0z"/>
<glyph glyph-name="minus-1" unicode="&#57439;" d="M85 427l0-342 223 0 119 119 0 223-342 0z m184-158l54 0 0-26-54 0 0 0-26 0 0 0-54 0 0 26 54 0m62-176l0 114 114 0z"/>
<glyph glyph-name="plus-2" unicode="&#57440;" d="M85 427l0-342 223 0 119 119 0 223-342 0z m326-217l-3-3-103 0 0-103-3-3-201 0 0 310 310 0z m-168-21l26 0 0 54 54 0 0 26-54 0 0 54-26 0 0-54-54 0 0-26 54 0z"/>
<glyph glyph-name="minus-2" unicode="&#57441;" d="M85 427l0-342 223 0 119 119 0 223-342 0z m326-217l-3-3-103 0 0-103-3-3-201 0 0 310 310 0z m-168 59l-54 0 0-26 54 0 0 0 26 0 0 0 54 0 0 26-54 0"/>
<glyph glyph-name="plus-3" unicode="&#57442;" d="M256 427c-94 0-171-77-171-171 0-94 77-171 171-171 94 0 171 77 171 171 0 94-77 171-171 171z m0-302c-72 1-130 59-131 131 1 72 59 130 131 131 72-1 130-59 131-131-1-72-59-130-131-131z m17 148l0 68-34 0 0-68-68 0 0-34 68 0 0-68 34 0 0 68 68 0 0 34z"/>
<glyph glyph-name="minus-3" unicode="&#57443;" d="M256 427c-94 0-171-77-171-171 0-94 77-171 171-171 94 0 171 77 171 171 0 94-77 171-171 171z m0-302c-72 1-130 59-131 131 1 72 59 130 131 131 72-1 130-59 131-131-1-72-59-130-131-131z m-17 148l-68 0 0-34 170 0 0 34-68 0"/>
<glyph glyph-name="plus-4" unicode="&#57444;" d="M407 407c-13 13-28 20-47 20l-208 0c-19 0-34-7-47-20-13-13-20-28-20-47l0-208c0-18 7-34 20-47 13-13 28-20 47-20l208 0c19 0 34 7 47 20 13 13 20 29 20 47l0 208c0 19-7 34-20 47z m-18-255c0-8-3-15-9-20-5-6-12-9-20-9l-208 0c-8 0-15 3-20 9-6 5-9 12-9 20l0 208c0 8 3 15 9 20 5 6 12 9 20 9l208 0c8 0 15-3 20-9 6-5 9-12 9-20l0-208z m-48 123l-66 0 0 66c0 3-1 5-3 7-1 2-4 3-7 3l-18 0c-3 0-6-1-7-3-2-2-3-4-3-7l0-66-66 0c-3 0-5-1-7-3-2-1-3-4-3-7l0-18c0-3 1-6 3-7 2-2 4-3 7-3l66 0 0-66c0-3 1-5 3-7 1-2 4-3 7-3l18 0c3 0 6 1 7 3 2 2 3 4 3 7l0 66 66 0c3 0 5 1 7 3 2 1 3 4 3 7l0 18c0 3-1 6-3 7-2 2-4 3-7 3z"/>
<glyph glyph-name="plus-5" unicode="&#57446;" d="M85 427l342 0 0-342-342 0z m38-38l0-266 266 0 0 266z m50-114l64 0 0 64 38 0 0-64 64 0 0-38-64 0 0-64-38 0 0 64-64 0z"/>
<glyph glyph-name="minus-5" unicode="&#57447;" d="M85 427l342 0 0-342-342 0z m38-38l0-266 266 0 0 266z m157-152l-107 0 0 38 107 0m-5 0l64 0 0-38-64 0"/>
<glyph glyph-name="briefcase-1" unicode="&#57448;" d="M433 354l-109 0 0 13c0 58-55 55-55 55l-27 0c-58 0-55-55-55-55l0-13-109 0c-28 0-27-28-27-28l0-53c0 0 117-43 204-43 96 0 206 43 206 43l0 53c0 29-28 28-28 28z m-209 14c0 28 32 28 32 28 33 0 32-28 32-28l0-14-64 0z m66-127l-68 0 0 26 68 0z m171-124l0 137c0 0-89-41-206-41-108 0-204 42-204 42l0-138c0-27 27-27 27-27l355 0c30 0 28 27 28 27z m-171 72c0-9-8-17-17-17l-34 0c-9 0-17 8-17 17l0 18 68 0z"/>
<glyph glyph-name="briefcase-2" unicode="&#57449;" d="M307 190c0-4-1-7-4-10-3-3-6-4-10-4l-74 0c-4 0-7 1-10 4-3 3-4 6-4 10l0 37-154 0 0-110c0-10 4-19 11-26 7-7 16-11 26-11l336 0c10 0 19 4 26 11 7 7 11 16 11 26l0 110-154 0z m-80 37l58 0 0-30-58 0z m223 135c-7 7-16 11-26 11l-80 0 0 37c0 6-2 11-7 15-4 4-9 7-15 7l-132 0c-6 0-11-3-15-7-5-4-7-9-7-15l0-37-80 0c-10 0-19-4-26-11-7-7-11-15-11-26l0-87 410 0 0 87c0 11-4 19-11 26z m-135 11l-118 0 0 29 118 0z"/>
<glyph glyph-name="chair-1" unicode="&#57450;" d="M298 189c-8 2-8 25-8 25 0 0 24 24 30 57 14 0 23 35 9 48 0 13 18 102-73 102-91 0-73-89-73-102-14-13-5-48 9-48 6-33 30-57 30-57 0 0 0-23-8-25-27-4-129-49-129-98l342 0c0 49-102 94-129 98z m127 62l0 45-30 0 0-45-45 0 0-30 45 0 0-44 30 0 0 44 45 0 0 30z"/>
<glyph glyph-name="chair-2" unicode="&#57451;" d="M256 189c-8 2-8 25-8 25 0 0 25 24 30 57 14 0 23 35 9 48 0 13 19 102-73 102-91 0-73-89-73-102-14-13-5-48 9-48 6-33 31-57 31-57 0 0-1-23-9-25-27-4-128-49-128-98l341 0c0 49-101 94-129 98z m178 117c-10-10-19-21-28-32-8-12-17-24-24-36-3-4-6-9-8-13 0 0-1 0-1 0-6 6-12 11-18 15-7 5-13 9-20 13-3 2-6 4-10 6-3 1-7 3-11 5l-16-53c2-1 5-1 8-2 3-1 6-1 9-2 7-2 12-4 18-6 12-4 22-9 29-16l22-21 8 25c3 12 8 25 12 38 5 13 11 25 17 38 5 12 12 24 20 35 7 11 16 22 27 31-12-7-23-16-34-25z"/>
<glyph glyph-name="chair-3" unicode="&#57452;" d="M273 225c-1 3-2 15-2 15 0 0 25 24 30 57 14 0 23 35 9 47 1 13 19 102-73 102-91 0-73-89-72-102-15-12-6-47 8-47 6-33 31-57 31-57 0 0-1-24-9-25-27-4-128-49-128-98l187 0 0 62c2 31 6 37 19 46z m106-1l-47 0c-30 0-53-24-53-53l0-39c0-29 23-53 53-53l47 0c29 0 53 24 53 53l0 39c0 29-24 53-53 53z m30-45l-55-80c-2-2-5-4-7-4-2 0-4 1-5 2l-45 31c-3 5-3 11 0 15 2 4 12 6 16 3l29-21 48 66c3 4 12 5 16 2 4-3 6-10 3-14z"/>
<glyph glyph-name="pinterest" unicode="&#57453;" d="M410 294c0-18-4-34-11-49-7-15-17-28-30-38-13-11-29-19-48-25-18-6-39-9-62-9l0-20c0-12-3-24-10-34-7-10-16-18-27-23-3-2-6-3-11-4-4-1-8-2-13-2-5 0-9 1-15 2-5 1-10 3-16 6l0 58c5-4 9-6 13-7 5-1 8-1 12 0 3 1 6 3 8 6 2 3 3 6 3 10l0 160 56 0 0-99c5 0 10 0 17 0 6 1 13 2 20 4 8 1 15 4 22 7 7 3 14 7 19 12 6 5 11 12 15 19 3 7 5 16 5 26 0 14-3 26-9 35-6 10-13 17-23 23-9 6-20 10-32 13-12 3-25 4-37 4-13 0-25-1-37-4-12-3-23-8-33-14-9-6-17-14-22-23-6-9-9-21-9-34 0-4 0-8 1-13 1-5 2-9 4-14 1-4 3-8 5-12 2-3 4-6 6-8l-36-38c-5 5-10 11-14 18-4 7-8 14-10 22-3 8-5 15-6 23-2 8-3 16-3 22 0 19 4 36 12 52 7 16 18 29 31 40 14 11 30 20 49 26 19 6 39 10 62 10 23 0 44-4 63-10 19-6 35-15 48-26 14-11 24-24 32-40 7-15 11-33 11-52z"/>
<glyph glyph-name="youtube" unicode="&#57454;" d="M195 326c0-11 1-20 3-26 1-5 4-10 7-14 4-4 10-6 16-8 6-2 19-3 28-3 9 0 12 1 19 3 6 3 11 5 15 10 4 5 7 10 8 16 1 6 2 15 2 27l0 34c0 10-1 17-2 21-2 5-4 10-8 14-3 5-8 8-15 11-7 3-11 4-20 4-11 0-27-2-34-6-7-5-12-10-14-17-3-7-5-17-5-30z m41 48c0 6 0 11 1 13 1 1 5 2 7 2 2 0 6-1 7-2 0-2 1-7 1-13l0-57c0-6-1-10-2-12 0-1-5-2-8-2-2 0-4 1-5 3-1 2-1 6-1 12l0 56z m-110-98l40 0 0 60 31 106-40 1c-5-31-9-53-12-71 0 11-4 39-10 71l-39 0 30-107 0-60z m186 10c2-4 5-6 9-8 4-2 11-2 17-2 5 0 10 0 14 2 5 2 8 5 11 9l-1-10 42 0 0 138-42 0 0-95c0-11 0-17 0-19-1-2-5-3-8-3-2 0-5 1-5 3-1 2-1 8-1 18l0 96-40 0 0-95c0-11 0-19 0-23 1-4 2-8 4-11z m102-36l-314 0c-17 0-31-15-31-33l0-122c0-18 14-33 31-33l314 0c17 0 31 15 31 33l0 122c0 18-14 33-31 33z m-253-63l-12 0 0-98-30 0 0 98-14 0 0 27 56 0z m84-98l-30 0 0 8c-2-3-4-6-8-7-3-2-6-3-10-3-5 0-10 1-13 3-3 1-5 3-6 6-2 3-3 5-3 8 0 3 0 9 0 17l0 66 28 0 0-66c0-8 1-13 1-14 1-1 4-2 7-2 2 0 5 1 5 2 1 2 1 6 1 14l0 66 28 0 0-98z m84 28c0-8 0-13-1-17-1-3-4-6-7-9-4-2-7-4-12-4-3 0-7 1-10 3-3 1-9 3-12 7l-2-8-27 0 0 125 29 0 0-36c3 3 9 5 12 7 3 1 7 2 10 2 4 0 8-1 11-2 3-2 4-3 6-6 1-2 2-4 2-7 0-2 1 0 1-7l0-48z m83 27l-42 0 0-29c0-4 0-7 1-8 1-2 3-2 5-2 2 0 6 1 6 2 1 2 1 5 1 10l0 13 29 0 0-7c0-6-1-11-2-14 0-3-2-7-5-11-3-3-8-6-12-8-4-2-10-3-16-3-7 0-11 1-16 3-4 2-9 4-12 8-3 3-5 6-6 10-1 4-2 10-2 17l0 32c0 9 1 9 4 14 2 5 7 9 13 12 5 2 10 4 17 4 8 0 16-2 22-5 5-3 9-8 11-13 3-5 4-9 4-19z m-113 23c-1 1-5 2-7 2-2 0-3-1-4-2 0-1-1 2-1-3l0-47c0-5 1-8 1-10 1-1 2-2 4-2 2 0 7 1 7 2 1 2 1 5 1 11l0 46c0 5 0 1-1 3z m77 4c-2 0-5-1-5-2-1-1-1 0-1-5l0-6 11 0 0 6c0 5 0 3-1 5 0 1-2 2-4 2z"/>
<glyph glyph-name="share-1" unicode="&#57455;" d="M359 204c-11 0-22-4-30-10l-126 61 0 2 126 61c8-7 19-10 30-10 28 0 51 22 51 50 0 28-23 51-51 51-28 0-50-23-50-51l0 0-125-60c-8 7-19 11-31 11-28 0-51-23-51-51 0-27 23-50 51-50 10 0 19 3 27 8l129-62 0 0c0-28 22-51 50-51 28 0 51 23 51 51 0 28-23 50-51 50z"/>
<glyph glyph-name="csv" unicode="&#57456;" d="M404 363c0 2 0 3-1 5l-79 90c0 0 0 0 0 0-1 1-1 1-2 1 0 1 0 1-1 1 0 0-1 0-1 0 0 0 0 1-1 1 0 0-1 0-1 0l-195 0c-8 0-16-7-16-16l0-378c0-9 8-16 16-16l266 0c8 0 16 7 16 16l0 295c0 0 0 0-1 1z m-218-271c7 0 14 2 18 3l4-17c-4-2-14-4-25-4-34 0-51 21-51 49 0 33 23 51 53 51 11 0 20-2 24-4l-5-17c-4 1-10 3-18 3-18 0-31-10-31-32 0-20 11-32 31-32z m60-18c-11 0-22 3-28 6l5 18c6-3 15-6 24-6 10 0 16 4 16 11 0 6-5 9-17 13-16 6-26 15-26 29 0 17 13 29 36 29 11 0 20-2 25-4l-5-18c-4 2-10 4-20 4-10 0-14-4-14-9 0-6 5-9 18-14 17-6 25-15 25-29 0-16-12-30-39-30z m103 1l-26 0-31 98 24 0 12-41c3-12 6-23 9-35l0 0c2 12 5 23 9 34l12 42 24 0z m-226 113l0 257 187 0 0-82c0-5 3-8 8-8l71 0 0-167z m209 146l-149 0 0-88 149 0 0 69 0 0 0 19z m-100-87l-47 0 0 20 47 0z m0 22l-47 0 0 20 47 0z m0 22l-47 0 0 20 47 0 0-20z m1 22l0 20 48 0 0-20-48 0z m97-65l-19 0 0 57-13 0 0-57-11 0 0 45-12 0 0-45-10 0 0 33-13 0 0-33-18 0 0 63 96 0 0-63z m0 67l0 0 0-2-48 0 0 20 48 0 0-18z"/>
<glyph glyph-name="doc" unicode="&#57458;" d="M260 153c-14 0-22-13-22-30 0-18 9-31 22-31 14 0 22 13 22 31 0 16-8 30-22 30z m-103 0c-4 0-7 0-9-1l0-59c2 0 5 0 7 0 19-1 31 10 31 31 0 19-11 29-29 29z m247 210c0 2 0 3-1 5l-79 90c0 0 0 0 0 0-1 1-1 1-2 1 0 1 0 1-1 1 0 0-1 0-1 0 0 0 0 1-1 1 0 0-1 0-1 0l-195 0c-8 0-16-7-16-16l0-378c0-9 8-16 16-16l266 0c8 0 16 7 16 16l0 295c0 0 0 0-1 1z m-212-275c-9-8-24-11-41-11-11 0-18 0-24 1l0 89c8 1 18 2 28 2 17 0 28-3 37-10 9-7 15-18 15-34 0-17-6-29-15-37z m67-12c-27 0-42 20-42 46 0 27 17 47 44 47 27 0 43-20 43-45 0-30-18-48-45-48z m104 17c7 0 13 1 17 3l4-16c-4-2-13-4-24-4-31 0-47 20-47 45 0 31 22 48 49 48 11 0 19-2 23-4l-5-16c-4 2-9 4-17 4-16 0-29-10-29-30 0-18 11-30 29-30z m-240 95l0 257 187 0 0-82c0-5 3-8 8-8l71 0 0-167-266 0z m113 162l58 0c3 0 5 2 5 5 0 3-2 6-5 6l-58 0c-3 0-6-3-6-6 0-3 3-5 6-5z m87-32l-146 0c-3 0-5-2-5-5 0-3 2-6 5-6l146 0c3 0 5 3 5 6 0 3-2 5-5 5z m-131 21l5 20c2 5 2 9 3 14l0 0c1-5 2-9 3-14l4-20 9 0 11 43-8 0-4-19c-2-6-3-10-3-15l0 0c-1 4-2 9-3 14l-4 20-8 0-5-19c-1-6-2-11-3-15l0 0c-1 4-2 9-3 14l-4 20-8 0 10-43z m131-63l-146 0c-3 0-5-3-5-6 0-3 2-5 5-5l146 0c3 0 5 2 5 5 0 3-2 6-5 6z m0-44l-146 0c-3 0-5-2-5-5 0-3 2-5 5-5l146 0c3 0 5 2 5 5 0 3-2 5-5 5z"/>
<glyph glyph-name="docx" unicode="&#57459;" d="M404 363c0 2 0 3-1 5l-79 90c0 0 0 0 0 0-1 1-1 1-2 1 0 1 0 1-1 1 0 0-1 0-1 0 0 0 0 1-1 1 0 0-1 0-1 0l-195 0c-8 0-16-7-16-16l0-378c0-9 8-16 16-16l266 0c8 0 16 7 16 16l0 295c0 0 0 0-1 1z m-229-264c-7-6-18-9-32-9-8 0-14 0-18 1l0 68c6 1 13 2 21 2 14 0 22-3 29-8 7-5 12-14 12-26 0-13-5-23-12-28z m52-10c-21 0-33 16-33 36 0 21 13 36 34 36 21 0 33-16 33-35 0-23-14-37-34-37z m80 13c5 0 10 1 13 3l2-13c-2-1-9-3-17-3-25 0-37 15-37 35 0 24 17 37 38 37 8 0 15-1 17-3l-3-12c-3 1-8 2-13 2-13 0-22-7-22-23 0-14 8-23 22-23z m63-12l-6 13c-3 5-5 8-7 13l0 0c-1-5-3-8-5-13l-6-13-18 0 20 36-19 34 18 0 6-13c2-4 4-7 5-11l0 0c2 4 3 7 5 11l6 13 18 0-20-34 21-36z m-247 98l0 257 187 0 0-82c0-5 3-8 8-8l71 0 0-167z m25-39c-4 0-6-1-7-1l0-46c1 0 3 0 5 0 15 0 24 8 24 24 0 15-8 23-22 23z m79 0c-10 0-16-10-16-24 0-14 6-23 16-23 11 0 17 10 17 23 0 13-6 24-17 24z m78 178l0 45-156 0 0-111 45 0 0-46 157 0 0 112z m-111-58l-37 0 0 95 140 0 0-37-103 0z m149-46l-140 0 0 95 140 0z m-112 78c0-3-3-5-6-5-3 0-5 2-5 5 0 3 2 6 5 6 3 0 6-3 6-6z m8 2l82 0 0-4-82 0z m-8-21c0-3-3-5-6-5-3 0-5 2-5 5 0 3 2 5 5 5 3 0 6-2 6-5z m8 2l82 0 0-4-82 0z m-8-23c0-3-3-5-6-5-3 0-5 2-5 5 0 3 2 5 5 5 3 0 6-2 6-5z m8 2l82 0 0-4-82 0z m-8-22c0-3-3-5-6-5-3 0-5 2-5 5 0 3 2 6 5 6 3 0 6-3 6-6z m8 2l82 0 0-4-82 0z"/>
<glyph glyph-name="fla" unicode="&#57460;" d="M329 154l0 0c-2-6-3-14-5-19l-6-21 22 0-6 21c-2 6-4 13-5 19z m75 209c0 2 0 3-1 5l-79 90c0 0 0 0 0 0-1 1-1 1-2 1 0 1 0 1-1 1 0 0-1 0-1 0 0 0 0 1-1 1 0 0-1 0-1 0l-195 0c-8 0-16-7-16-16l0-378c0-9 8-16 16-16l266 0c8 0 16 7 16 16l0 295c0 0 0 0-1 1z m-203-211l-37 0 0-22 35 0 0-18-35 0 0-39-22 0 0 97 59 0z m78-79l-61 0 0 97 22 0 0-79 39 0 0-18z m72 0l-8 25-28 0-7-25-23 0 30 97 29 0 30-97z m38 115l-266 0 0 257 187 0 0-82c0-5 3-8 8-8l71 0 0-167z m-190 130l66 0 0-19-46 0 0-33 43 0 0-18-43 0 0-51-20 0z m81-1l21 0c0 0 0-82 0-92 0-9 2-11 12-11 0-17 0-19 0-19-16-1-33 2-33 21 0 20 0 101 0 101z"/>
<glyph glyph-name="flash" unicode="&#57461;" d="M248 143l0 0c-1-4-2-9-3-13l-4-14 14 0-4 14c-1 4-2 9-3 13z m156 220c0 2 0 3-1 5l-79 90c0 0 0 0 0 0-1 1-1 1-2 1 0 1 0 1-1 1 0 0-1 0-1 0 0 0 0 1-1 1 0 0-1 0-1 0l-195 0c-8 0-16-7-16-16l0-378c0-9 8-16 16-16l266 0c8 0 16 7 16 16l0 295c0 0 0 0-1 1z m-237-221l-23 0 0-16 22 0 0-12-22 0 0-27-14 0 0 67 37 0 0-12z m49-55l-38 0 0 67 14 0 0-54 24 0z m45 0l-4 17-18 0-4-17-15 0 19 67 18 0 19-67z m39-1c-7 0-14 2-18 4l3 13c4-2 10-4 15-4 7 0 10 2 10 7 0 4-3 6-10 9-10 4-17 10-17 20 0 11 9 20 23 20 7 0 12-2 16-3l-3-13c-3 2-7 4-13 4-6 0-9-3-9-7 0-4 4-6 11-9 11-5 16-11 16-20 0-11-7-21-24-21z m84 1l-13 0 0 28-23 0 0-28-14 0 0 67 14 0 0-26 23 0 0 26 13 0z m-261 101l0 257 187 0 0-82c0-5 3-8 8-8l71 0 0-167z m138 157c-18-13-29-49-39-69-9-20-27-17-27-17l0-24c0 0 11 0 20 4 10 4 20 12 26 23 3 4 6 13 11 22l27 0 0 24-17 0c2 6 5 11 7 14 7 11 23 11 23 11l0 22c0 0-14 4-31-10z"/>
<glyph glyph-name="swf" unicode="&#57462;" d="M404 363c0 2 0 3-1 5l-79 90c0 0 0 0 0 0-1 1-1 1-2 1 0 1 0 1-1 1 0 0-1 0-1 0 0 0 0 1-1 1 0 0-1 0-1 0l-195 0c-8 0-16-7-16-16l0-378c0-9 8-16 16-16l266 0c8 0 16 7 16 16l0 295c0 0 0 0-1 1z m-248-286c-10 0-21 2-26 5l4 17c6-3 14-6 23-6 10 0 15 4 15 10 0 6-5 9-16 13-15 5-25 14-25 27 0 15 13 27 35 27 10 0 18-2 23-4l-5-17c-3 2-10 4-19 4-9 0-13-4-13-8 0-6 5-9 17-13 16-6 24-14 24-27 0-16-12-28-37-28z m136 1l-22 0-8 39c-2 9-3 18-4 28l0 0c-2-10-3-19-6-28l-8-39-23 0-21 91 22 0 6-38c2-10 4-22 6-31l0 0c2 9 4 20 6 32l8 37 22 0 7-38c2-11 3-21 5-31l0 0c1 10 3 21 5 32l8 37 21 0z m90 74l-35 0 0-21 33 0 0-17-33 0 0-36-21 0 0 91 56 0z m-259 36l0 257 187 0 0-82c0-5 3-8 8-8l71 0 0-167z m145 155c-19-14-31-54-42-76-10-21-29-19-29-19l0-25c0 0 12-1 22 3 10 5 21 14 28 26 3 4 7 14 11 24l31 0 0 26-19 0c3 7 5 13 7 16 8 11 26 11 26 11l0 25c0 0-15 4-35-11z"/>
<glyph glyph-name="html-2" unicode="&#57463;" d="M404 363c0 2 0 3-1 5l-79 90c0 0 0 0 0 0-1 1-1 1-2 1 0 1 0 1-1 1 0 0-1 0-1 0 0 0 0 1-1 1 0 0-1 0-1 0l-195 0c-8 0-16-7-16-16l0-378c0-9 8-16 16-16l266 0c8 0 16 7 16 16l0 295c0 0 0 0-1 1z m-281 82l187 0 0-82c0-5 3-8 8-8l71 0 0-167-266 0z m62-356l-16 0 0 31-26 0 0-31-16 0 0 74 16 0 0-28 26 0 0 28 16 0z m64 60l-20 0 0-60-16 0 0 60-19 0 0 14 55 0z m69-60l-1 29c0 8 0 19 0 30l-1 0c-2-10-5-20-7-29l-9-28-13 0-7 28c-3 9-5 19-7 29l0 0c0-10-1-22-1-31l-2-28-15 0 5 74 22 0 7-25c2-8 4-17 6-26l0 0c2 9 4 18 7 26l7 25 21 0 4-74-16 0z m73 0l-44 0 0 74 16 0 0-60 28 0z m-70 186l-27 37c-8 11-22 15-34 10l-1 2c8 10 9 24 1 35l-20 28c-10 13-28 16-41 6l-2-2c-13-9-16-27-7-40l21-28c7-10 21-14 32-10l2-2c-8-10-8-24-1-35l28-37c9-13 27-15 40-6l3 2c12 9 15 27 6 40z m-88 68c-4-3-5-9-2-13l6-9c-7-1-14 2-19 8l-20 28c-6 8-4 20 4 27l3 2c9 6 21 4 27-4l20-29c5-6 5-15 1-21l-7 9c-3 4-9 5-13 2z m76-100l-3-2c-8-7-20-5-27 4l-27 37c-4 6-4 14-1 20l6-8c3-4 9-5 13-2 5 3 6 9 3 13l-7 9c7 2 15-1 20-7l27-37c6-9 5-21-4-27z"/>
<glyph glyph-name="htm" unicode="&#57464;" d="M404 363c0 2 0 3-1 5l-79 90c0 0 0 0 0 0-1 1-1 1-2 1 0 1 0 1-1 1 0 0-1 0-1 0 0 0 0 1-1 1 0 0-1 0-1 0l-195 0c-8 0-16-7-16-16l0-378c0-9 8-16 16-16l266 0c8 0 16 7 16 16l0 295c0 0 0 0-1 1z m-281 82l187 0 0-82c0-5 3-8 8-8l71 0 0-167-266 0z m77-373l-21 0 0 40-34 0 0-40-21 0 0 94 21 0 0-36 34 0 0 36 21 0 0-94z m81 76l-25 0 0-76-20 0 0 76-25 0 0 18 70 0z m87-76l-2 36c0 12 0 32 0 46l-1 0c-3-12-6-32-10-43l-11-37-16 0-10 36c-3 11-6 31-8 44l0 0c-1-13-1-34-2-46l-2-36-19 0 6 94 27 0 9-31c3-11 6-16 8-27l1-7c2 11 5 24 8 34l10 31 27 0 5-94-20 0z m-47 203l-27 37c-8 11-22 15-34 10l-1 2c8 10 9 24 1 35l-20 28c-10 13-28 16-41 6l-2-2c-13-9-16-27-7-40l21-28c7-10 21-14 32-10l2-2c-8-10-8-24-1-35l28-37c9-13 27-15 40-6l3 2c12 9 15 27 6 40z m-88 68c-4-3-5-9-2-13l6-9c-7-1-14 2-19 8l-20 28c-6 8-4 20 4 27l3 2c9 6 21 4 27-4l20-29c5-6 5-15 1-21l-7 9c-3 4-9 5-13 2z m76-100l-3-2c-8-7-20-5-27 4l-27 37c-4 6-4 14-1 20l6-8c3-4 9-5 13-2 5 3 6 9 3 13l-7 9c7 2 15-1 20-7l27-37c6-9 5-21-4-27z"/>
<glyph glyph-name="xls-4" unicode="&#57465;" d="M405 363c-1 2-1 3-2 5l-79 90c0 0 0 0 0 0-1 1-1 1-2 1 0 1 0 1-1 1 0 0-1 0-1 0 0 0 0 1-1 1 0 0-1 0-1 0l-195 0c-8 0-16-7-16-16l0-378c0-9 8-16 16-16l266 0c8 0 16 7 16 16l0 295c0 0 0 0 0 1z m-204-291l-9 18c-4 7-6 12-9 18l0 0c-2-6-5-11-8-18l-8-18-26 0 29 50-28 49 26 0 9-18c3-6 5-11 7-16l0 0c3 6 5 10 7 16l9 18 25 0-28-48 30-51z m100 0l-62 0 0 99 23 0 0-80 39 0z m38-2c-11 0-23 3-28 6l4 19c6-3 16-6 25-6 11 0 16 4 16 11 0 6-5 9-17 14-16 5-27 14-27 29 0 17 14 30 38 30 11 0 19-2 25-5l-5-18c-4 2-11 5-21 5-9 0-14-5-14-10 0-6 5-9 18-14 18-7 26-16 26-30 0-17-13-31-40-31z m-216 118l0 257 187 0 0-82c0-5 3-8 8-8l71 0 0-167z m157 170l-133 0 0-125 203 0 0 125z m0-60l-63 0 0 26 63 0z m-129 56l62 0 0-26-62 0z m0-30l62 0 0-26-62 0z m0-30l62 0 0-26-62 0z m0-57l0 27 62 0 0-27z m66 0l0 27 63 0 0-27z m129 0l-62 0 0 27 62 0z m0 61l-62 0 0 26 62 0z m-62 30l0 26 62 0 0-26z"/>
<glyph glyph-name="xls-5" unicode="&#57466;" d="M405 363c-1 2-1 3-2 5l-79 90c0 0 0 0 0 0-1 1-1 1-2 1 0 1 0 1-1 1 0 0-1 0-1 0 0 0 0 1-1 1 0 0-1 0-1 0l-195 0c-8 0-16-7-16-16l0-378c0-9 8-16 16-16l266 0c8 0 16 7 16 16l0 295c0 0 0 0 0 1z m-204-291l-9 18c-4 7-6 12-9 18l0 0c-2-6-5-11-8-18l-8-18-26 0 29 50-28 49 26 0 9-18c3-6 5-11 7-16l0 0c3 6 5 10 7 16l9 18 25 0-28-48 30-51z m100 0l-62 0 0 99 23 0 0-80 39 0z m38-2c-11 0-23 3-28 6l4 19c6-3 16-6 25-6 11 0 16 4 16 11 0 6-5 9-17 14-16 5-27 14-27 29 0 17 14 30 38 30 11 0 19-2 25-5l-5-18c-4 2-11 5-21 5-9 0-14-5-14-10 0-6 5-9 18-14 18-7 26-16 26-30 0-17-13-31-40-31z m-216 118l0 257 187 0 0-82c0-5 3-8 8-8l71 0 0-167z m178 170l-31 0-23-33-22 33-31 0 37-56-42-63 61 0 0 21-14 0 11 18 26-39 33 0-42 63z"/>
<glyph glyph-name="xlsx" unicode="&#57467;" d="M405 363c-1 2-1 3-2 5l-79 90c0 0 0 0 0 0-1 1-1 1-2 1 0 1 0 1-1 1 0 0-1 0-1 0 0 0 0 1-1 1 0 0-1 0-1 0l-195 0c-8 0-16-7-16-16l0-378c0-9 8-16 16-16l266 0c8 0 16 7 16 16l0 295c0 0 0 0 0 1z m-230-282l-7 14c-3 5-5 9-7 14l0 0c-2-5-4-9-6-14l-7-14-20 0 23 39-22 38 20 0 7-14c2-4 4-8 6-13l0 0c2 5 3 9 5 13l7 14 20 0-22-37 23-40z m78 0l-49 0 0 77 18 0 0-62 31 0z m29-1c-9 0-18 2-22 5l3 14c5-2 12-5 20-5 8 0 12 4 12 9 0 4-4 7-13 11-13 4-21 11-21 22 0 13 11 24 29 24 9 0 15-2 20-4l-4-14c-3 1-9 3-16 3-8 0-11-3-11-7 0-5 4-7 14-11 14-5 20-12 20-23 0-13-10-24-31-24z m83 1l-7 14c-2 5-4 9-6 14l-1 0c-1-5-3-9-6-14l-6-14-20 0 22 39-21 38 20 0 7-14c2-4 4-8 5-13l1 0c1 5 3 9 5 13l6 14 20 0-21-37 23-40z m-242 107l0 257 187 0 0-82c0-5 3-8 8-8l71 0 0-167z m160 170l-133 0 0-125 204 0 0 125z m0-61l-62 0 0 27 62 0z m-129 57l63 0 0-26-63 0z m0-30l63 0 0-27-63 0z m0-31l63 0 0-26-63 0z m0-56l0 26 63 0 0-26z m67 0l0 26 62 0 0-26z m129 0l-62 0 0 26 62 0z m0 60l-62 0 0 27 62 0z m-62 31l0 26 62 0 0-26z"/>
<glyph glyph-name="xlsx-1" unicode="&#57468;" d="M405 363c-1 2-1 3-2 5l-79 90c0 0 0 0 0 0-1 1-1 1-2 1 0 1 0 1-1 1 0 0-1 0-1 0 0 0 0 1-1 1 0 0-1 0-1 0l-195 0c-8 0-16-7-16-16l0-378c0-9 8-16 16-16l266 0c8 0 16 7 16 16l0 295c0 0 0 0 0 1z m-230-282l-7 14c-3 5-5 9-7 14l0 0c-2-5-4-9-6-14l-7-14-20 0 23 39-22 38 20 0 7-14c2-4 4-8 6-13l0 0c2 5 3 9 5 13l7 14 20 0-22-37 23-40z m78 0l-49 0 0 77 18 0 0-62 31 0z m29-1c-9 0-18 2-22 5l3 14c5-2 12-5 20-5 8 0 12 4 12 9 0 4-4 7-13 11-13 4-21 11-21 22 0 13 11 24 29 24 9 0 15-2 20-4l-4-14c-3 1-9 3-16 3-8 0-11-3-11-7 0-5 4-7 14-11 14-5 20-12 20-23 0-13-10-24-31-24z m83 1l-7 14c-2 5-4 9-6 14l-1 0c-1-5-3-9-6-14l-6-14-20 0 22 39-21 38 20 0 7-14c2-4 4-8 5-13l1 0c1 5 3 9 5 13l6 14 20 0-21-37 23-40z m-242 107l0 257 187 0 0-82c0-5 3-8 8-8l71 0 0-167z m178 170l-31 0-23-33-22 33-31 0 37-56-42-63 61 0 0 21-14 0 11 18 26-39 33 0-42 63z"/>
<glyph glyph-name="xbrl-2" unicode="&#57469;" d="M244 138c0 6-5 9-13 9-4 0-6 0-7 0l0-19 6 0c9 0 14 4 14 10z m-14-22l-6 0 0-23c2 0 4 0 7 0 8 0 15 3 15 12 0 7-7 11-16 11z m68 29c-4 0-6 0-7-1l0-21 6 0c9 0 14 5 14 11 0 7-5 11-13 11z m107 218c-1 2-1 3-2 5l-79 90c0 0 0 0 0 0-1 1-1 1-2 1 0 1 0 1-1 1 0 0-1 0-1 0 0 0 0 1-1 1 0 0-1 0-1 0l-195 0c-8 0-16-7-16-16l0-378c0-9 8-16 16-16l266 0c8 0 16 7 16 16l0 295c0 0 0 0 0 1z m-282 82l187 0 0-82c0-5 3-8 8-8l71 0 0-167-266 0z m52-364l-7 14c0 0-7 15-7 14l0 0c0 0-6-13-6-14l-7-14-20 0 23 39-22 38 20 0 7-14c0 0 6-13 6-13l0 0c0 0 6 14 5 13l7 14 20 0-22-37 23-40z m81 6c-5-4-15-7-31-7-8 0-15 1-19 1l0 78c5 1 14 1 23 1 11 0 18-1 23-4 6-3 10-9 10-16 0-7-4-13-13-17l0 0c9-2 16-9 16-19 0-7-4-13-9-17z m57-6c0 0-3 11-5 18-2 9-5 12-12 12l-5 0 0-30-18 0 0 75c6 1 14 2 23 2 12 0 20-2 25-6 5-4 7-9 7-16 0-10-7-17-13-19l0 0c5-4 7-6 10-15 2-9 4-17 6-21l-18 0z m76 0l-48 0 0 77 17 0 0-62 31 0z m-223 195l61-29 0 14-46 20 0 0 46 21 0 13-61-28z m71-34l13 0 27 93-13 0z m48 60l47-21 0 0-47-20 0-14 61 28 0 12-61 28z"/>
<glyph glyph-name="xml" unicode="&#57470;" d="M404 363c0 2 0 3-1 5l-79 90c0 0 0 0 0 0-1 1-1 1-2 1 0 1 0 1-1 1 0 0-1 0-1 0 0 0 0 1-1 1 0 0-1 0-1 0l-195 0c-8 0-16-7-16-16l0-378c0-9 8-16 16-16l266 0c8 0 16 7 16 16l0 295c0 0 0 0-1 1z m-221-282l-8 16c-3 6-5 11-8 16l0 0c-2-5-4-10-7-16l-7-16-22 0 25 44-25 44 23 0 8-16c2-6 4-10 7-15l0 0c2 6 4 10 6 15l7 16 23 0-25-43 26-45z m109 0l-1 34c-1 10-1 23-1 36l0 0c-3-11-7-24-10-34l-11-34-15 0-10 33c-2 11-5 23-8 35l0 0c0-12-1-26-1-37l-2-33-18 0 5 88 27 0 8-29c3-11 6-22 8-32l0 0c3 10 6 22 8 32l10 29 26 0 4-88z m89 0l-54 0 0 88 20 0 0-71 34 0z m8 107l-266 0 0 257 187 0 0-82c0-5 3-8 8-8l71 0 0-167z m-223 88l61-29 0 14-46 20 0 0 46 21 0 13-61-28z m71-34l13 0 27 93-13 0z m48 60l47-21 0 0-47-20 0-14 61 28 0 12-61 28z"/>
<glyph glyph-name="jpg" unicode="&#57471;" d="M404 363c0 2 0 3-1 5l-79 90c0 0 0 0 0 0-1 1-1 1-2 1 0 1 0 1-1 1 0 0-1 0-1 0 0 0 0 1-1 1 0 0-1 0-1 0l-195 0c-8 0-16-7-16-16l0-378c0-9 8-16 16-16l266 0c8 0 16 7 16 16l0 295c0 0 0 0-1 1z m-217-254c0-28-13-38-34-38-5 0-12 1-16 3l2 17c3-1 7-1 11-1 10 0 16 4 16 19l0 61 22 0 0-61z m80 9c-8-7-19-11-32-11-3 0-5 1-7 1l0-35-22 0 0 96c7 1 16 2 30 2 13 0 23-2 29-8 7-5 11-13 11-22 0-10-3-18-9-23z m104-41c-7-2-19-5-32-5-18 0-31 4-40 13-9 9-14 21-14 36 1 32 24 50 56 50 13 0 22-2 27-4l-5-18c-5 2-12 4-22 4-19 0-33-10-33-31 0-20 13-32 31-32 5 0 9 0 11 1l0 21-15 0 0 17 36 0z m-248 111l0 257 187 0 0-82c0-5 3-8 8-8l71 0 0-167-266 0z m114-33c-5 0-8-1-9-1l0-29c2-1 4-1 7-1 12 0 19 6 19 16 0 9-6 15-17 15z m-3 125c-32 32-63-92-63-92l107 0c0 0-12 60-44 92z m78-33c-23-6-34-59-34-59l77 0c-11 26-24 64-43 59z m-141 61c11 0 20 9 20 20 0 11-9 20-20 20-11 0-20-9-20-20 0-11 9-20 20-20z m121-12c4 0 7 0 11 1 4-2 8-3 14-3 13 0 23 6 23 14 0 8-10 15-23 15-5 0-10-1-14-3-1 2-3 3-6 3l-3 0c-5 0-8-4-9-8-10-1-18-5-18-9 0-6 11-10 25-10z"/>
<glyph glyph-name="gif" unicode="&#57472;" d="M404 363c0 2 0 3-1 5l-79 90c0 0 0 0 0 0-1 1-1 1-2 1 0 1 0 1-1 1 0 0-1 0-1 0 0 0 0 1-1 1 0 0-1 0-1 0l-195 0c-8 0-16-7-16-16l0-378c0-9 8-16 16-16l266 0c8 0 16 7 16 16l0 295c0 0 0 0-1 1z m-170-284c-7-2-20-6-33-6-17 0-30 5-39 14-9 8-14 21-14 35 0 32 24 51 56 51 12 0 22-3 27-5l-5-18c-5 3-12 5-23 5-18 0-32-11-32-32 0-20 13-32 31-32 5 0 9 1 11 2l0 20-15 0 0 17 36 0z m39-5l-22 0 0 98 22 0z m79 80l-38 0 0-23 35 0 0-17-35 0 0-40-22 0 0 98 60 0z m-229 34l0 257 187 0 0-82c0-5 3-8 8-8l71 0 0-167z m202 54l-42 50 23 0-38 45 24 0-32 38 15 0-24 29-23-29 15 0-28-38 23 0-35-45 22 0-38-50 64 0 0-59 10 0 0 59z"/>
<glyph glyph-name="tiff" unicode="&#57473;" d="M404 363c0 2 0 3-1 5l-79 90c0 0 0 0 0 0-1 1-1 1-2 1 0 1 0 1-1 1 0 0-1 0-1 0 0 0 0 1-1 1 0 0-1 0-1 0l-195 0c-8 0-16-7-16-16l0-378c0-9 8-16 16-16l266 0c8 0 16 7 16 16l0 295c0 0 0 0-1 1z m-205-209l-26 0 0-79-23 0 0 79-26 0 0 18 75 0 0-18z m34-79l-22 0 0 97 22 0z m79 79l-38 0 0-22 35 0 0-18-35 0 0-39-22 0 0 97 60 0z m76 0l-38 0 0-22 35 0 0-18-35 0 0-39-22 0 0 97 60 0z m-265 34l0 257 187 0 0-82c0-5 3-8 8-8l71 0 0-167z m215 152l-83 0-6 12c-1 1-3 3-6 3l-36 0c-2 0-4-1-5-3l-6-12-22 0c-8 0-16-8-16-16l0-97c0-9 8-16 16-16l164 0c8 0 16 7 16 16l0 97c0 8-8 16-16 16z m-58-106l-24 0c-4 8-8 20-14 18-7-1-10-16-11-18l0 0c0 2-4 19-14 28-10 9-19-25-20-28l-21 0 0 81 104 0z m37 12c-16 0-29 13-29 29 0 16 13 30 29 30 16 0 29-14 29-30 0-16-13-29-29-29z m0 55c-14 0-26-11-26-26 0-14 12-25 26-25 14 0 26 11 26 25 0 15-12 26-26 26z m-15-34l-8 8 8 9z m15-14l-8 8 16 0z m-8 36l8 9 8-9z m21-22l0 17 9-9z m-100 19c2 0 4 1 6 1 2-1 4-1 7-1 7 0 13 3 13 7 0 4-6 7-13 7-3 0-5-1-7-2-1 1-2 2-3 2l-2 0c-3 0-5-2-5-4-6-1-10-2-10-5 0-2 6-5 14-5z m-22 8c0-3-2-6-6-6-3 0-5 3-5 6 0 3 2 6 5 6 4 0 6-3 6-6z"/>
<glyph glyph-name="png" unicode="&#57474;" d="M164 153c-4 0-7-1-8-1l0-27c1-1 4-1 7-1 11 0 17 6 17 15 0 9-5 14-16 14z m240 210c0 2 0 3-1 5l-79 90c0 0 0 0 0 0-1 1-1 1-2 1 0 1 0 1-1 1 0 0-1 0-1 0 0 0 0 1-1 1 0 0-1 0-1 0l-195 0c-8 0-16-7-16-16l0-378c0-9 8-16 16-16l266 0c8 0 16 7 16 16l0 295c0 0 0 0-1 1z m-211-245c-8-7-18-10-30-10-3 0-5 1-7 1l0-33-21 0 0 91c6 1 15 2 28 2 13 0 22-3 28-8 6-4 10-12 10-21 0-9-3-17-8-22z m97-42l-21 0-20 35c-6 10-12 22-16 33l0 0c0-12 0-25 0-40l0-28-19 0 0 92 25 0 19-34c5-10 11-21 15-31l0 0c-1 12-2 24-2 38l0 27 19 0 0-92z m95 4c-6-2-18-5-31-5-16 0-28 4-37 12-8 8-13 20-13 34 0 30 23 48 53 48 12 0 21-2 25-5l-4-16c-5 2-12 4-22 4-17 0-30-10-30-30 0-19 12-30 29-30 5 0 8 0 10 1l0 19-14 0 0 17 34 0z m-262 108l0 257 187 0 0-58 5 0 0-32 31 0 0 0 43 0 0-167-266 0z m65 72l31 0 0 32-31 0 0 32 31 0 0 31-31 0 0 32-32 0 0-32 32 0 0-31-32 0 0-32 32 0 0-32-31 0 0-31 31 0 0-32 32 0 0 32-32 0z m64 0l31 0 0 32-32 0 0 32 32 0 0 31-32 0 0 32-31 0 0-32 31 0 0-31-31 0 0-32 31 0 0-32-31 0 0-31 31 0 0-32 32 0 0 32-31 0z m31 95l31 0c-3 2-4 4-4 8l0 24-27 0z m31 0l0-31-31 0 0-32 31 0 0-32-31 0 0-31 31 0 0-32 32 0 0 32-31 0 0 31 31 0 0 32-31 0 0 32 31 0 0 31-28 0c-2 0-3 0-4 0z"/>
<glyph glyph-name="mp3-1" unicode="&#57475;" d="M404 363c0 2 0 3-1 5l-79 90c0 0 0 0 0 0-1 1-1 1-2 1 0 1 0 1-1 1 0 0-1 0-1 0 0 0 0 1-1 1 0 0-1 0-1 0l-195 0c-8 0-16-7-16-16l0-378c0-9 8-16 16-16l266 0c8 0 16 7 16 16l0 295c0 0 0 0-1 1z m-194-285l-2 35c0 11 0 24 0 38l-1 0c-3-12-7-25-10-36l-11-36-16 0-10 36c-3 11-6 24-9 36l0 0c0-13-1-27-1-38l-2-35-19 0 6 92 27 0 9-31c3-11 6-22 8-33l0 0c3 11 6 23 9 33l10 31 27 0 5-92z m93 42c-7-7-17-10-30-10-2 0-5 0-7 1l0-33-20 0 0 90c6 2 15 2 28 2 13 0 22-2 28-7 6-5 10-12 10-21 0-9-3-17-9-22z m46-43c-11 0-21 3-26 7l4 15c4-2 12-5 21-5 11 0 16 5 16 12 0 9-8 13-18 13l-8 0 0 14 8 0c7 1 16 3 16 11 0 5-5 9-13 9-8 0-15-3-19-5l-4 15c5 3 16 7 27 7 19 0 30-10 30-23 0-9-5-17-16-20l0-1c10-2 19-10 19-21 0-16-14-28-37-28z m-226 111l0 257 187 0 0-82c0-5 3-8 8-8l71 0 0-167-266 0z m152-33c-4 0-7-1-9-1l0-27c2-1 4-1 7-1 11 0 18 6 18 15 0 9-6 14-16 14z m-52 135c0 5-4 8-9 8l-14 0c-4 0-8-3-8-8l0-35c0-4 4-8 8-8l14 0c5 0 9 4 9 8l0-8 80-35 0 122-80-35z"/>
<glyph glyph-name="mp3-2" unicode="&#57476;" d="M404 363c0 2 0 3-1 5l-79 90c0 0 0 0 0 0-1 1-1 1-2 1 0 1 0 1-1 1 0 0-1 0-1 0 0 0 0 1-1 1 0 0-1 0-1 0l-195 0c-8 0-16-7-16-16l0-378c0-9 8-16 16-16l266 0c8 0 16 7 16 16l0 295c0 0 0 0-1 1z m-194-285l-2 35c0 11 0 24 0 38l-1 0c-3-12-7-25-10-36l-11-36-16 0-10 36c-3 11-6 24-9 36l0 0c0-13-1-27-1-38l-2-35-19 0 6 92 27 0 9-31c3-11 6-22 8-33l0 0c3 11 6 23 9 33l10 31 27 0 5-92z m93 42c-7-7-17-10-30-10-2 0-5 0-7 1l0-33-20 0 0 90c6 2 15 2 28 2 13 0 22-2 28-7 6-5 10-12 10-21 0-9-3-17-9-22z m46-43c-11 0-21 3-26 7l4 15c4-2 12-5 21-5 11 0 16 5 16 12 0 9-8 13-18 13l-8 0 0 14 8 0c7 1 16 3 16 11 0 5-5 9-13 9-8 0-15-3-19-5l-4 15c5 3 16 7 27 7 19 0 30-10 30-23 0-9-5-17-16-20l0-1c10-2 19-10 19-21 0-16-14-28-37-28z m-226 111l0 257 187 0 0-82c0-5 3-8 8-8l71 0 0-167-266 0z m152-33c-4 0-7-1-9-1l0-27c2-1 4-1 7-1 11 0 18 6 18 15 0 9-6 14-16 14z m-107 192l34 0 0-10-34 0z m0-16l34 0 0-10-34 0z m0-16l34 0 0-10-34 0z m0-16l34 0 0-10-34 0z m0-15l34 0 0-10-34 0z m0-16l34 0 0-10-34 0z m0-16l34 0 0-10-34 0z m0-16l34 0 0-10-34 0z m50 79l34 0 0-10-34 0z m0-16l34 0 0-10-34 0z m0-15l34 0 0-10-34 0z m0-16l34 0 0-10-34 0z m0-16l34 0 0-10-34 0z m0-16l34 0 0-10-34 0z m53 111l34 0 0-10-34 0z m0-16l34 0 0-10-34 0z m0-16l34 0 0-10-34 0z m0-16l34 0 0-10-34 0z m0-15l34 0 0-10-34 0z m0-16l34 0 0-10-34 0z m0-16l34 0 0-10-34 0z m0-16l34 0 0-10-34 0z m50 32l35 0 0-10-35 0z m0-16l35 0 0-10-35 0z m0-16l35 0 0-10-35 0z"/>
<glyph glyph-name="mp3-3" unicode="&#57477;" d="M404 363c0 2 0 3-1 5l-79 90c0 0 0 0 0 0-1 1-1 1-2 1 0 1 0 1-1 1 0 0-1 0-1 0 0 0 0 1-1 1 0 0-1 0-1 0l-195 0c-8 0-16-7-16-16l0-378c0-9 8-16 16-16l266 0c8 0 16 7 16 16l0 295c0 0 0 0-1 1z m-194-285l-2 35c0 11 0 24 0 38l-1 0c-3-12-7-25-10-36l-11-36-16 0-10 36c-3 11-6 24-9 36l0 0c0-13-1-27-1-38l-2-35-19 0 6 92 27 0 9-31c3-11 6-22 8-33l0 0c3 11 6 23 9 33l10 31 27 0 5-92z m93 42c-7-7-17-10-30-10-2 0-5 0-7 1l0-33-20 0 0 90c6 2 15 2 28 2 13 0 22-2 28-7 6-5 10-12 10-21 0-9-3-17-9-22z m46-43c-11 0-21 3-26 7l4 15c4-2 12-5 21-5 11 0 16 5 16 12 0 9-8 13-18 13l-8 0 0 14 8 0c7 1 16 3 16 11 0 5-5 9-13 9-8 0-15-3-19-5l-4 15c5 3 16 7 27 7 19 0 30-10 30-23 0-9-5-17-16-20l0-1c10-2 19-10 19-21 0-16-14-28-37-28z m-226 111l0 257 187 0 0-82c0-5 3-8 8-8l71 0 0-167-266 0z m152-33c-4 0-7-1-9-1l0-27c2-1 4-1 7-1 11 0 18 6 18 15 0 9-6 14-16 14z m-45 96c-4 2-9 2-13 1-11-3-18-12-16-20 1-8 12-13 23-10 9 2 16 9 16 17l0 0 0 76 56 11 0-62c-4 1-9 1-14 0-11-2-18-11-16-20 2-8 13-13 24-10 9 3 16 9 16 18l0 102-76-12z"/>
<glyph glyph-name="avi" unicode="&#57478;" d="M194 153l-1 0c-1-6-3-14-4-19l-6-21 22 0-6 21c-2 6-4 13-5 19z m210 210c0 2 0 3-1 5l-79 90c0 0 0 0 0 0-1 1-1 1-2 1 0 1 0 1-1 1 0 0-1 0-1 0 0 0 0 1-1 1 0 0-1 0-1 0l-195 0c-8 0-16-7-16-16l0-378c0-9 8-16 16-16l266 0c8 0 16 7 16 16l0 295c0 0 0 0-1 1z m-189-291l-7 25-28 0-7-25-23 0 30 97 29 0 30-97z m77 0l-26 0-31 97 24 0 12-41c4-12 7-23 9-35l0 0c3 12 6 23 9 34l13 42 23 0z m66 0l-23 0 0 97 23 0z m-235 116l0 257 187 0 0-82c0-5 3-8 8-8l71 0 0-167-266 0z m57 201l0-166 148 0 0 166z m122-13l0-64-98 0 0 64z m-116-13l13 0 0-15-13 0z m0-33l13 0 0-14-13 0z m13-78l-13 0 0 14 13 0z m0 32l-13 0 0 15 13 0z m5-49l0 66 98 0 0-66z m118 17l-14 0 0 14 14 0z m0 32l-14 0 0 15 14 0z m0 32l-14 0 0 14 14 0z m0 32l-14 0 0 15 14 0z"/>
<glyph glyph-name="mp4" unicode="&#57479;" d="M350 134l-12-19 0 0 20 0 0 19c0 5 1 11 1 17l-1 0c-3-6-5-11-8-17z m54 229c0 2 0 3-1 5l-79 90c0 0 0 0 0 0-1 1-1 1-2 1 0 1 0 1-1 1 0 0-1 0-1 0 0 0 0 1-1 1 0 0-1 0-1 0l-195 0c-8 0-16-7-16-16l0-378c0-9 8-16 16-16l266 0c8 0 16 7 16 16l0 295c0 0 0 0-1 1z m-194-285l-2 35c0 11 0 24 0 38l-1 0c-3-12-7-25-10-36l-11-36-16 0-10 36c-3 11-6 24-9 36l0 0c0-13-1-27-1-38l-2-35-19 0 6 92 27 0 9-31c3-11 6-22 8-33l0 0c3 11 6 23 9 33l10 31 27 0 5-92z m93 42c-7-7-17-10-30-10-2 0-5 0-7 1l0-33-20 0 0 90c6 2 15 2 28 2 13 0 22-2 28-7 6-5 10-12 10-21 0-9-3-17-9-22z m85-21l-10 0 0-21-20 0 0 21-39 0 0 14 34 53 25 0 0-51 10 0z m-265 89l0 257 187 0 0-82c0-5 3-8 8-8l71 0 0-167-266 0z m152-33c-4 0-7-1-9-1l0-27c2-1 4-1 7-1 11 0 18 6 18 15 0 9-6 14-16 14z m-83 100l113 0 0 83-113 0z m40 66c0 1 1 1 1 1 0 1 1 1 1 0l39-24c0-1 0-1 0-1 0-1 0-1 0-1l-39-25c0 0 0 0-1 0l0 0c0 0-1 1-1 1z m-40-67l0 1-4 0 0-20 121 0 0 20-4 0 0-1z m115-1l0-15-117 0 0 15z m-119 85l4 0 0 1 113 0 0-1 4 0 0 20-121 0z m2 18l117 0 0-15-117 0z m5-4l17 0 0-7-17 0z m22 0l17 0 0-7-17 0z m22 0l17 0 0-7-17 0z m22 0l17 0 0-7-17 0z m23 0l17 0 0-7-17 0z m-89-103l17 0 0-7-17 0z m22 0l17 0 0-7-17 0z m22 0l17 0 0-7-17 0z m22 0l17 0 0-7-17 0z m23 0l17 0 0-7-17 0z"/>
<glyph glyph-name="pdf-2" unicode="&#57480;" d="M250 152c-5 0-8 0-10 0l0-64c2-1 5-1 8-1 20 0 33 11 33 34 0 21-12 31-31 31z m-85 1c-5 0-8-1-9-1l0-29c2 0 4-1 7-1 12 0 19 6 19 16 0 9-6 15-17 15z m239 210c0 2 0 3-1 5l-79 90c0 0 0 0 0 0-1 1-1 1-2 1 0 1 0 1-1 1 0 0-1 0-1 0 0 0 0 1-1 1 0 0-1 0-1 0l-195 0c-8 0-16-7-16-16l0-378c0-9 8-16 16-16l266 0c8 0 16 7 16 16l0 295c0 0 0 0-1 1z m-209-247c-8-7-19-10-32-10-3 0-5 0-7 0l0-35-22 0 0 96c7 1 16 2 30 2 13 0 23-2 29-7 7-5 11-14 11-23 0-10-3-18-9-23z m93-33c-10-9-26-13-45-13-12 0-20 1-25 2l0 95c8 2 19 2 30 2 18 0 30-3 40-10 10-8 16-20 16-37 0-18-7-31-16-39z m90 68l-37 0 0-23 35 0 0-18-35 0 0-39-22 0 0 98 59 0z m-255 37l0 257 187 0 0-82c0-5 3-8 8-8l71 0 0-167-266 0z m215 100c0 0-11 1-29 1-5 0-11 0-16 0-34 26-62 51-78 66 1 1 1 3 1 4 2 21 0 35-7 42-4 4-10 6-16 4-4-1-11-5-14-13-2-8 2-19 13-31 0 0 4-4 10-10-4-21-15-66-21-87-13-7-24-16-32-25l-1-1 0-1c-1-1-5-11-2-18 2-4 4-6 8-8l1 0c0 0 1 0 2 0 7 0 23 3 32 36l2 8c31 15 70 20 98 22 15-11 29-21 43-30l0 0c1 0 7-3 14-3 10 0 18 6 21 17l0 1c1 6-1 12-5 16-8 9-22 10-24 10z m-181-65c0 0 0 0 0 0 0 2 0 6 2 9 5 5 11 10 18 15-7-22-17-24-20-24z m44 147c-11 11-11 17-10 19 1 3 5 4 5 4 2 1 3 1 5 0 2-3 4-12 3-27-2 2-3 4-3 4z m-6-100l0 1 0 0c6 21 13 51 18 70l0 0 0 0c14-13 35-33 61-53l0 0 0 0c-24-2-53-7-79-18z m160-6c-2-7-6-8-9-8-4 0-7 1-8 2-10 6-19 12-29 19 0 0 0 0 0 0 17 0 28-1 29-1 2 0 11-1 15-6 2-2 2-4 2-6z"/>
<glyph glyph-name="pps" unicode="&#57481;" d="M182 151c-4 0-7 0-8-1l0-26c2 0 4 0 6 0 11 0 18 5 18 14 0 8-6 13-16 13z m76 0c-4 0-7 0-8-1l0-26c2 0 4 0 7 0 10 0 17 5 17 14 0 8-6 13-16 13z m146 212c0 2 0 3-1 5l-79 90c0 0 0 0 0 0-1 1-1 1-2 1 0 1 0 1-1 1 0 0-1 0-1 0 0 0 0 1-1 1 0 0-1 0-1 0l-195 0c-8 0-16-7-16-16l0-378c0-9 8-16 16-16l266 0c8 0 16 7 16 16l0 295c0 0 0 0-1 1z m-195-245c-6-7-17-10-28-10-3 0-5 1-7 1l0-32-20 0 0 87c6 1 15 2 27 2 12 0 21-2 27-7 6-4 9-12 9-20 0-9-2-16-8-21z m77 0c-7-7-17-10-29-10-3 0-5 1-7 1l0-32-20 0 0 87c6 1 15 2 27 2 13 0 21-2 27-7 6-4 10-12 10-20 0-9-3-16-8-21z m42-42c-10 0-20 3-25 5l4 17c5-3 14-6 22-6 9 0 14 4 14 10 0 5-4 9-14 12-15 5-25 14-25 26 0 16 13 27 34 27 10 0 17-2 22-4l-4-17c-4 2-10 5-19 5-8 0-13-4-13-9 0-6 5-8 17-12 15-6 23-14 23-27 0-15-12-27-36-27z m-205 112l0 257 187 0 0-82c0-5 3-8 8-8l71 0 0-167z m108 196c-39-2-69-34-69-73 0-9 2-18 5-26l64 28z m65-116l-61 38-65-28c12-24 37-41 66-41 24 0 46 13 60 31z m15 44c0 39-32 72-71 73l0-70 61-39c6 11 10 23 10 36z m49 2c-1 2-4 1-5-1 0 0-1 0-1 0-1 0-2 0-3-1l-6-8c-1 0-2-1-3-2l-23-31c-1-1-2-3-2-5l-32-44c-2-2-9-15-6-17 3-2 14 7 16 10l33 42c2 1 4 2 5 4l23 30c1 1 1 2 2 3l5 7c1 2 1 3 1 4 0 1 0 1 0 1 2 2 1 4 0 6z"/>
<glyph glyph-name="ppt" unicode="&#57482;" d="M404 363c0 2 0 3-1 5l-79 90c0 0 0 0 0 0-1 1-1 1-2 1 0 1 0 1-1 1 0 0-1 0-1 0 0 0 0 1-1 1 0 0-1 0-1 0l-195 0c-8 0-16-7-16-16l0-378c0-9 8-16 16-16l266 0c8 0 16 7 16 16l0 295c0 0 0 0-1 1z m-220-247c-7-7-18-10-30-10-3 0-5 0-7 0l0-33-21 0 0 92c6 1 16 2 28 2 13 0 23-3 29-8 6-4 10-12 10-21 0-9-3-17-9-22z m98 0c-7-7-18-10-30-10-3 0-6 0-8 0l0-33-20 0 0 92c6 1 15 2 28 2 13 0 22-3 28-8 6-4 10-12 10-21 0-9-3-17-8-22z m106 33l-26 0 0-76-21 0 0 76-25 0 0 17 72 0z m-265 39l0 257 187 0 0-82c0-5 3-8 8-8l71 0 0-167z m33-37c-5 0-8-1-9-1l0-28c2 0 4 0 7 0 11 0 18 6 18 15 0 9-6 14-16 14z m97 0c-4 0-7-1-9-1l0-28c2 0 4 0 7 0 12 0 19 6 19 15 0 9-6 14-17 14z m-50 221c-38-3-68-35-68-74 0-9 1-18 4-26l64 28 0 72z m-60-107c12-24 37-40 65-40 25 0 47 12 60 31l-60 38z m70 108l0-71 61-39c6 11 9 23 9 36 0 40-31 72-70 74z m84-43l80 0 0-12-80 0z m0-31l80 0 0-12-80 0z m0-30l80 0 0-12-80 0z"/>
<glyph glyph-name="pptx" unicode="&#57483;" d="M404 363c0 2 0 3-1 5l-79 90c0 0 0 0 0 0-1 1-1 1-2 1 0 1 0 1-1 1 0 0-1 0-1 0 0 0 0 1-1 1 0 0-1 0-1 0l-195 0c-8 0-16-7-16-16l0-378c0-9 8-16 16-16l266 0c8 0 16 7 16 16l0 295c0 0 0 0-1 1z m-223-247c-5-5-14-7-23-7-2 0-4 0-6 0l0-26-16 0 0 72c5 1 12 1 22 1 10 0 17-2 22-6 5-3 8-9 8-16 0-7-2-13-7-18z m63 0c-6-5-14-7-24-7-2 0-4 0-5 0l0-26-16 0 0 72c5 1 12 1 22 1 10 0 17-2 22-6 4-3 8-9 8-16 0-7-3-13-7-18z m67 26l-20 0 0-59-16 0 0 59-19 0 0 14 55 0z m49-59l-6 13c-3 5-5 9-7 13l0 0c-2-4-3-8-6-13l-6-13-18 0 21 37-21 36 19 0 6-13c3-5 4-8 6-13l0 0c2 5 3 8 5 13l6 13 19 0-20-36 21-37z m-237 105l0 257 187 0 0-82c0-5 3-8 8-8l71 0 0-167z m36-44c-3 0-6 0-7-1l0-21c2 0 3-1 6-1 8 0 14 5 14 12 0 7-5 11-13 11z m63 0c-4 0-6 0-7-1l0-21c1 0 3-1 5-1 9 0 14 5 14 12 0 7-4 11-12 11z m-19 228c-38-3-68-35-68-74 0-9 1-18 4-26l64 28 0 72z m-60-107c12-24 37-40 65-40 25 0 47 12 60 31l-60 38z m70 108l0-71 61-39c6 11 9 23 9 36 0 40-31 72-70 74z m84-43l80 0 0-12-80 0z m0-31l80 0 0-12-80 0z m0-30l80 0 0-12-80 0z"/>
<glyph glyph-name="txt" unicode="&#57484;" d="M404 363c0 2 0 3-1 5l-79 90c0 0 0 0 0 0-1 1-1 1-2 1 0 1 0 1-1 1 0 0-1 0-1 0 0 0 0 1-1 1 0 0-1 0-1 0l-195 0c-8 0-16-7-16-16l0-378c0-9 8-16 16-16l266 0c8 0 16 7 16 16l0 295c0 0 0 0-1 1z m-196-213l-27 0 0-79-22 0 0 79-26 0 0 18 75 0z m65-79l-8 17c-4 7-6 12-9 18l0 0c-2-6-5-11-8-18l-8-17-25 0 28 49-27 48 25 0 9-18c3-6 5-10 7-16l0 0c3 6 5 11 7 16l8 18 25 0-27-48 29-49z m106 79l-27 0 0-79-22 0 0 79-26 0 0 18 75 0z m-256 38l0 257 187 0 0-82c0-5 3-8 8-8l71 0 0-167-266 0z m58 163l89 0c3 0 5 2 5 5 0 3-2 5-5 5l-89 0c-3 0-5-2-5-5 0-3 2-5 5-5z m146-33l-146 0c-3 0-6-2-6-5 0-3 3-5 6-5l146 0c3 0 5 2 5 5 0 3-2 5-5 5z m0-42l-146 0c-3 0-6-2-6-5 0-3 3-6 6-6l146 0c3 0 5 3 5 6 0 3-2 5-5 5z m0-44l-146 0c-3 0-6-2-6-5 0-3 3-5 6-5l146 0c3 0 5 2 5 5 0 3-2 5-5 5z"/>
<glyph glyph-name="zip-1" unicode="&#57485;" d="M404 363c0 2 0 3-1 5l-79 90c0 0 0 0 0 0-1 1-1 1-2 1 0 1 0 1-1 1 0 0-1 0-1 0 0 0 0 1-1 1 0 0-1 0-1 0l-195 0c-8 0-16-7-16-16l0-378c0-9 8-16 16-16l266 0c8 0 16 7 16 16l0 295c0 0 0 0-1 1z m-172-292l-75 0 0 12 46 67 0 1-42 0 0 18 71 0 0-13-46-66 0 0 46 0 0-19z m36 0l-22 0 0 98 22 0z m80 45c-7-7-18-10-31-10-3 0-6 0-8 0l0-35-22 0 0 97c7 1 17 2 30 2 14 0 23-3 30-8 6-5 10-13 10-23 0-9-3-17-9-23z m-225 72l0 257 97 0 0 2 24 0 0-2 66 0 0-82c0-5 3-8 8-8l71 0 0-167-266 0z m195-35c-4 0-7 0-9-1l0-29c2 0 4 0 8 0 11 0 19 6 19 16 0 9-7 14-18 14z m-74 278l24 0 0-10-24 0z m-24 14l24 0 0-8-24 0z m0-29l24 0 0-10-24 0z m24-16l24 0 0-10-24 0z m0-32l24 0 0-10-24 0z m-24 16l24 0 0-10-24 0z m24-34c-17 0-26-14-26-32l-5-52c0-17 14-31 31-31 17 0 31 14 31 31l-6 52c0 18-8 32-25 32z m10-101l-20 0 0 43 20 0z"/>
<glyph glyph-name="csv-1" unicode="&#57457;" d="M414 314l-9 0 0 48c0 0 0 0-1 1 0 2 0 3-1 5l-79 90c0 0 0 0 0 0-1 1-1 1-2 1 0 1 0 1-1 1 0 0-1 0-1 0 0 0 0 1-1 1 0 0-1 0-1 0l-195 0c-8 0-16-7-16-16l0-131-9 0c-13 0-23-10-23-23l0-119c0-13 10-23 23-23l9 0 0-82c0-9 8-16 16-16l266 0c8 0 16 7 16 16l0 82 9 0c13 0 23 10 23 23l0 119c0 13-10 23-23 23z m-291 131l187 0 0-82c0-5 3-8 8-8l71 0 0-41-266 0z m121-218c-20 7-33 18-33 35 0 21 18 36 46 36 13 0 23-2 30-6l-6-22c-4 3-13 6-25 6-11 0-17-5-17-11 0-8 7-11 22-17 21-8 31-19 31-36 0-20-15-37-48-37-14 0-27 3-34 7l5 22c8-3 19-7 30-7 13 0 20 5 20 13 0 7-6 12-21 17z m-141 8c0 41 29 63 66 63 14 0 24-2 29-5l-5-22c-6 3-14 5-23 5-22 0-38-13-38-40 0-24 14-39 38-39 8 0 17 2 23 4l4-21c-5-3-16-5-31-5-42 0-63 26-63 60z m286-163l-266 0 0 77 266 0 0-77z m-18 105l-32 0-39 119 30 0 15-50c4-15 8-28 10-43l1 0c3 14 7 28 11 42l15 51 29 0z"/>
<glyph glyph-name="doc-1" unicode="&#57486;" d="M412 314l-10 0 0 48c0 0 0 0 0 1 0 2 0 3-2 5l-79 90c0 0 0 0 0 0 0 1-1 1-1 1 0 1-1 1-1 1 0 0-1 0-1 0 0 0-1 1-1 1 0 0-1 0-2 0l-194 0c-9 0-16-7-16-16l0-131-10 0c-12 0-23-10-23-23l0-119c0-13 11-23 23-23l10 0 0-82c0-9 7-16 16-16l265 0c9 0 16 7 16 16l0 82 10 0c13 0 23 10 23 23l0 119c0 13-10 23-23 23z m-291 131l186 0 0-82c0-5 4-8 8-8l71 0 0-41-265 0z m193-207c0-36-22-58-55-58-33 0-52 24-52 56 0 34 21 58 54 58 34 1 53-25 53-56z m-217-56l0 109c9 2 21 3 34 3 21 0 35-4 46-12 11-9 19-23 19-42 0-22-8-36-19-45-12-10-29-15-51-15-13 0-23 1-29 2z m289-110l-265 0 0 77 265 0 0-77z m2 128c7 0 16 2 21 4l3-20c-4-2-15-4-28-4-39 0-59 24-59 55 0 38 28 60 61 60 13 0 23-3 28-5l-5-20c-6 2-13 4-22 4-20 0-35-12-35-37 0-22 13-37 36-37z m-219 39c0 23-14 35-35 35-6 0-9 0-12-1l0-73c3 0 6 0 9 0 23 0 38 12 38 39z m65-2c0-22 10-38 27-38 17 0 26 17 26 38 0 20-9 37-26 37-17 0-27-16-27-37z"/>
<glyph glyph-name="docx-1" unicode="&#57487;" d="M412 314l-10 0 0 48c0 0 0 0 0 1 0 2 0 3-2 5l-79 90c0 0 0 0 0 0 0 1-1 1-1 1 0 1-1 1-1 1 0 0-1 0-1 0 0 0-1 1-1 1 0 0-1 0-2 0l-194 0c-9 0-16-7-16-16l0-131-10 0c-12 0-23-10-23-23l0-119c0-13 11-23 23-23l10 0 0-82c0-9 7-16 16-16l265 0c9 0 16 7 16 16l0 82 10 0c13 0 23 10 23 23l0 119c0 13-10 23-23 23z m-291 131l186 0 0-82c0-5 4-8 8-8l71 0 0-41-265 0z m203-235c5 0 12 1 16 3l3-15c-4-2-12-4-22-4-30 0-45 18-45 43 0 29 21 45 47 45 10 0 17-2 21-3l-4-16c-4 2-10 3-17 3-15 0-27-9-27-28 0-17 10-28 28-28z m-57 29c0-28-17-45-42-45-26 0-41 19-41 43 0 26 17 45 42 45 27 0 41-19 41-43z m-167-44l0 85c7 1 16 2 26 2 16 0 27-3 35-10 9-6 15-17 15-32 0-16-6-28-15-35-9-7-23-11-39-11-10 0-18 1-22 1z m286-123l-265 0 0 77 265 0 0-77z m15 123l-8 16c-3 6-5 10-7 15l-1 0c-1-5-4-9-6-15l-7-16-23 0 25 44-24 42 23 0 7-16c3-5 5-9 7-14l0 0c2 6 4 9 6 14l7 16 22 0-24-42 26-44z m-246 44c0 18-10 28-27 28-4 0-7-1-9-1l0-56c2-1 4-1 7-1 17 0 29 10 29 30z m50-1c0-17 8-29 21-29 13 0 20 13 20 29 0 16-7 29-20 29-14 0-21-13-21-29z"/>
<glyph glyph-name="fla-1" unicode="&#57488;" d="M412 314l-10 0 0 48c0 0 0 0 0 1 0 2 0 3-2 5l-79 90c0 0 0 0 0 0 0 1-1 1-1 1 0 1-1 1-1 1 0 0-1 0-1 0 0 0-1 1-1 1 0 0-1 0-2 0l-194 0c-9 0-16-7-16-16l0-131-10 0c-12 0-23-10-23-23l0-119c0-13 11-23 23-23l10 0 0-82c0-9 7-16 16-16l265 0c9 0 16 7 16 16l0 82 10 0c13 0 23 10 23 23l0 119c0 13-10 23-23 23z m-291 131l186 0 0-82c0-5 4-8 8-8l71 0 0-41-265 0z m167-246l0-23-75 0 0 120 28 0 0-97z m-168-23l0 120 73 0 0-22-46 0 0-27 43 0 0-22-43 0 0-49z m266-104l-265 0 0 77 265 0 0-77z m-9 104l-9 31-35 0-8-31-28 0 36 120 36 0 37-120z m-27 104l0 0c-2-7-4-16-6-23l-7-25 27 0-8 25c-2 7-4 16-6 23z"/>
<glyph glyph-name="flash-1" unicode="&#57489;" d="M255 242c-1 5-3 11-4 16l0 0c-1-5-2-11-4-16l-4-17 17 0z m157 72l-10 0 0 48c0 0 0 0 0 1 0 2 0 3-2 5l-79 90c0 0 0 0 0 0 0 1-1 1-1 1 0 1-1 1-1 1 0 0-1 0-1 0 0 0-1 1-1 1 0 0-1 0-2 0l-194 0c-9 0-16-7-16-16l0-131-10 0c-12 0-23-10-23-23l0-119c0-13 11-23 23-23l10 0 0-82c0-9 7-16 16-16l265 0c9 0 16 7 16 16l0 82 10 0c13 0 23 10 23 23l0 119c0 13-10 23-23 23z m-291 131l186 0 0-82c0-5 4-8 8-8l71 0 0-41-265 0z m194-221c-12 5-21 13-21 24 0 14 11 25 29 25 9 0 15-2 19-4l-3-15c-4 2-9 4-16 4-8 0-11-4-11-8 0-5 4-7 14-12 13-5 19-12 19-24 0-14-9-25-30-25-9 0-17 2-22 5l4 15c5-3 12-5 19-5 8 0 12 3 12 9 0 5-4 8-13 11z m-29-34l-18 0-6 21-22 0-5-21-18 0 23 82 23 0z m-74 15l0-15-47 0 0 82 17 0 0-67z m-106-15l0 82 46 0 0-15-29 0 0-19 27 0 0-15-27 0 0-33-17 0z m280-118l-265 0 0 77 265 0 0-77z m33 118l-17 0 0 34-28 0 0-34-17 0 0 82 17 0 0-32 28 0 0 32 17 0z"/>
<glyph glyph-name="swf-1" unicode="&#57490;" d="M414 314l-9 0 0 48c0 0 0 0-1 1 0 2 0 3-1 5l-79 90c0 0 0 0 0 0-1 1-1 1-2 1 0 1 0 1-1 1 0 0-1 0-1 0 0 0 0 1-1 1 0 0-1 0-1 0l-195 0c-8 0-16-7-16-16l0-131-9 0c-13 0-23-10-23-23l0-119c0-13 10-23 23-23l9 0 0-82c0-9 8-16 16-16l266 0c8 0 16 7 16 16l0 82 9 0c13 0 23 10 23 23l0 119c0 13-10 23-23 23z m-291 131l187 0 0-82c0-5 3-8 8-8l71 0 0-41-266 0z m212-154l-29-112-27 0-10 48c-2 12-4 22-5 35l0 0c-2-13-4-23-7-35l-11-48-27 0-27 112 27 0 9-46c2-13 4-28 6-39l1 0c1 12 4 26 7 39l9 46 27 0 9-47c3-13 5-25 6-37l1 0c1 12 4 25 6 38l9 46 26 0z m-228-107l5 21c7-3 17-7 28-7 12 0 18 5 18 13 0 7-6 11-19 15-19 7-31 17-31 33 0 19 16 34 42 34 13 0 22-3 29-6l-6-20c-4 2-12 5-23 5-11 0-16-5-16-10 0-8 6-11 20-16 20-8 30-18 30-34 0-18-15-34-46-34-12 0-25 3-31 6z m282-112l-266 0 0 77 266 0 0-77z m27 198l-43 0 0-25 41 0 0-21-41 0 0-45-25 0 0 112 68 0z"/>
<glyph glyph-name="minus-4" unicode="&#57510;" d="M407 407c-13 13-28 20-47 20l-208 0c-19 0-34-7-47-20-13-13-20-28-20-47l0-208c0-18 7-34 20-47 13-13 28-20 47-20l208 0c19 0 34 7 47 20 13 13 20 29 20 47l0 208c0 19-7 34-20 47z m-18-255c0-8-3-15-9-20-5-6-12-9-20-9l-208 0c-8 0-15 3-20 9-6 5-9 12-9 20l0 208c0 8 3 15 9 20 5 6 12 9 20 9l208 0c8 0 15-3 20-9 6-5 9-12 9-20l0-208z m-114 85l66 0c3 0 5 1 7 3 2 1 3 4 3 6l0 19c0 3-1 6-3 7-2 2-4 3-7 3l-66 0m5 0l-109 0c-3 0-5-1-7-3-2-1-3-4-3-7l0-18c0-3 1-6 3-7 2-2 4-3 7-3l109 0"/>
<glyph glyph-name="html-3" unicode="&#57445;" d="M414 314l-9 0 0 48c0 0 0 0-1 1 0 2 0 3-1 5l-79 90c0 0 0 0 0 0-1 1-1 1-2 1 0 1 0 1-1 1 0 0-1 0-1 0 0 0 0 1-1 1 0 0-1 0-1 0l-195 0c-8 0-16-7-16-16l0-131-9 0c-13 0-23-10-23-23l0-119c0-13 10-23 23-23l9 0 0-82c0-9 8-16 16-16l266 0c8 0 16 7 16 16l0 82 9 0c13 0 23 10 23 23l0 119c0 13-10 23-23 23z m-291 131l187 0 0-82c0-5 3-8 8-8l71 0 0-41-266 0z m230-255l-19 0-1 35c-1 11-1 24-1 37l0 0c-3-12-7-25-10-35l-11-35-15 0-10 35c-3 10-6 23-8 35l0 0c-1-12-1-26-2-38l-1-34-19 0 6 90 27 0 8-30c3-10 6-21 8-32l0 0c2 10 5 22 8 32l10 30 26 0z m-172 73l0 17 67 0 0-17-24 0 0-73-19 0 0 73-24 0z m-63-35l0-38-20 0 0 90 20 0 0-34 32 0 0 34 20 0 0-90-20 0 0 38z m271-156l-266 0 0 77 266 0 0-77z m35 118l-55 0 0 90 20 0 0-73 35 0z"/>
<glyph glyph-name="htm-1" unicode="&#57491;" d="M414 314l-9 0 0 48c0 0 0 0-1 1 0 2 0 3-1 5l-79 90c0 0 0 0 0 0-1 1-1 1-2 1 0 1 0 1-1 1 0 0-1 0-1 0 0 0 0 1-1 1 0 0-1 0-1 0l-195 0c-8 0-16-7-16-16l0-131-9 0c-13 0-23-10-23-23l0-119c0-13 10-23 23-23l9 0 0-82c0-9 8-16 16-16l266 0c8 0 16 7 16 16l0 82 9 0c13 0 23 10 23 23l0 119c0 13-10 23-23 23z m-291 131l187 0 0-82c0-5 3-8 8-8l71 0 0-41-266 0z m82-184l0 20 77 0 0-20-27 0 0-83-23 0 0 83z m-104-83l0 102 23 0 0-39 37 0 0 39 23 0 0-102-23 0 0 43-37 0 0-43z m288-106l-266 0 0 77 266 0 0-77z m0 106l-1 39c-1 13-1 27-1 42l-1 0c-3-13-7-27-11-39l-12-40-17 0-11 39c-3 12-7 27-9 40l0 0c-1-13-1-29-2-42l-2-39-21 0 7 102 30 0 9-34c3-12 7-24 9-36l0 0c3 12 6 25 10 36l10 34 30 0 5-102z"/>
<glyph glyph-name="xls-6" unicode="&#57492;" d="M414 314l-9 0 0 48c0 0 0 0-1 1 0 2 0 3-1 5l-79 90c0 0 0 0 0 0-1 1-1 1-2 1 0 1 0 1-1 1 0 0-1 0-1 0 0 0 0 1-1 1 0 0-1 0-1 0l-195 0c-8 0-16-7-16-16l0-131-9 0c-13 0-23-10-23-23l0-119c0-13 10-23 23-23l9 0 0-82c0-9 8-16 16-16l266 0c8 0 16 7 16 16l0 82 9 0c13 0 23 10 23 23l0 119c0 13-10 23-23 23z m-291 131l187 0 0-82c0-5 3-8 8-8l71 0 0-41-266 0z m181-248l0-23-77 0 0 123 28 0 0-100 49 0z m-198-23l36 62-34 61 32 0 10-23c4-7 7-13 10-20l0 0c3 8 5 13 8 20l11 23 31 0-34-60 36-63-32 0-11 22c-5 9-7 15-11 22l0 0c-3-7-6-13-10-22l-10-22z m283-102l-266 0 0 77 266 0 0-77z m-39 100c-14 0-28 4-35 8l6 23c7-4 19-8 31-8 13 0 19 5 19 13 0 8-6 12-20 18-21 7-34 18-34 36 0 21 17 37 46 37 14 0 24-3 32-6l-6-23c-5 3-14 6-26 6-12 0-18-6-18-12 0-8 7-11 23-17 21-8 32-19 32-37 0-20-16-38-50-38z"/>
<glyph glyph-name="xlsx-2" unicode="&#57493;" d="M414 314l-9 0 0 48c0 0 0 0-1 1 0 2 0 3-1 5l-79 90c0 0 0 0 0 0-1 1-1 1-2 1 0 1 0 1-1 1 0 0-1 0-1 0 0 0 0 1-1 1 0 0-1 0-1 0l-195 0c-8 0-16-7-16-16l0-131-9 0c-13 0-23-10-23-23l0-119c0-13 10-23 23-23l9 0 0-82c0-9 8-16 16-16l266 0c8 0 16 7 16 16l0 82 9 0c13 0 23 10 23 23l0 119c0 13-10 23-23 23z m-291 131l187 0 0-82c0-5 3-8 8-8l71 0 0-41-266 0z m163-219c-16 5-26 14-26 28 0 16 14 28 36 28 11 0 19-2 24-4l-4-18c-4 2-11 5-20 5-10 0-14-4-14-9 0-6 5-9 17-14 17-6 25-15 25-28 0-16-12-30-38-30-11 0-22 3-27 6l4 18c6-3 15-6 24-6 10 0 15 4 15 10 0 6-4 10-16 14z m-36-22l0-18-59 0 0 95 21 0 0-77z m-128-18l-25 0 28 48-27 47 25 0 8-17c3-6 5-11 7-16l0 0c3 6 5 10 7 16l8 17 25 0-27-47 28-48-25 0-8 17c-4 7-6 12-9 17l0 0c-2-5-5-10-8-17z m267-114l-266 0 0 77 266 0 0-77z m0 114l-9 17c-3 7-6 12-8 17l-1 0c-2-5-4-10-7-17l-8-17-24 0 27 48-26 47 24 0 9-17c2-6 4-11 7-16l0 0c2 6 4 10 6 16l9 17 24 0-27-47 28-48-24 0z"/>
<glyph glyph-name="xbrl-3" unicode="&#57494;" d="M304 263c-5 0-8-1-9-1l0-26 8 0c10 0 17 6 17 14 0 8-6 13-16 13z m-85-37l-7 0 0-26c2-1 4-1 8-1 9 0 18 4 18 14 0 9-9 13-19 13z m17 27c0 7-6 11-15 11-5 0-8-1-9-1l0-22 7 0c11 0 17 5 17 12z m178 62l-10 0 0 47c0 1 0 1 0 1 0 2-1 4-2 6l-79 90c0 0 0 0 0 0 0 0-1 1-2 1 0 0 0 0 0 0-1 1-1 1-2 1 0 0 0 0 0 0-1 0-1 0-2 0l-194 0c-9 0-16-7-16-16l0-130-10 0c-13 0-23-10-23-23l0-119c0-13 10-23 23-23l10 0 0-82c0-9 7-16 16-16l265 0c9 0 16 7 16 16l0 82 10 0c13 0 23 10 23 23l0 119c0 13-10 23-23 23z m-291 130l186 0 0-82c0-4 4-8 8-8l71 0 0-40-265 0z m193-239c-2 12-6 15-15 15l-6 0 0-37-21 0 0 92c7 1 17 2 28 2 14 0 23-2 30-7 6-4 9-11 9-20 0-11-9-20-17-22l0-1c7-3 10-9 13-17 2-11 5-23 7-27l-21 0 0 0c-2 3-4 11-7 22z m-56 6c0-8-4-15-9-20-7-5-19-8-37-8-11 0-19 0-23 1l0 92c5 2 16 2 27 2 13 0 21-1 28-5 6-4 11-10 11-19 0-8-5-16-15-20l0 0c10-3 18-11 18-23z m-142-28l-24 0 27 48-26 46 24 0 9-17c2-6 4-10 7-15l0 0c2 6 4 10 6 15l8 17 25 0-27-46 28-48-25 0-8 17c-4 7-6 12-8 17l-1 0c-2-5-4-10-7-17z m270-112l-265 0 0 78 265 0z m32 112l-59 0 0 93 21 0 0-76 38 0z"/>
<glyph glyph-name="xml-1" unicode="&#57495;" d="M414 314l-9 0 0 48c0 0 0 0-1 1 0 2 0 3-1 5l-79 90c0 0 0 0 0 0-1 1-1 1-2 1 0 1 0 1-1 1 0 0-1 0-1 0 0 0 0 1-1 1 0 0-1 0-1 0l-195 0c-8 0-16-7-16-16l0-131-9 0c-13 0-23-10-23-23l0-119c0-13 10-23 23-23l9 0 0-82c0-9 8-16 16-16l266 0c8 0 16 7 16 16l0 82 9 0c13 0 23 10 23 23l0 119c0 13-10 23-23 23z m-291 131l187 0 0-82c0-5 3-8 8-8l71 0 0-41-266 0z m203-263l-24 0-1 42c-1 13-1 28-1 44l-1 0c-3-14-8-29-12-42l-13-42-19 0-12 42c-3 12-7 28-9 42l-1 0c0-15-1-31-2-45l-1-41-23 0 7 108 32 0 11-36c3-12 7-26 9-38l0 0c4 12 7 26 11 38l11 36 32 0z m-223 0l31 55-30 53 28 0 10-20c3-6 5-11 8-17l0 0c3 6 5 11 8 17l9 20 28 0-31-53 32-55-28 0-10 20c-4 7-6 13-9 19l-1 0c-2-6-5-12-8-19l-9-20z m286-110l-266 0 0 77 266 0 0-77z m23 110l-67 0 0 108 24 0 0-87 43 0 0-21z"/>
<glyph glyph-name="jpg-1" unicode="&#57496;" d="M245 275c-5 0-9-1-11-1l0-36c3 0 5-1 9-1 15 0 24 8 24 20 0 11-8 18-22 18z m176 39l-10 0 0 48c0 0 0 0 0 1 0 2-1 3-2 5l-79 90c0 0 0 0 0 0-1 1-1 1-2 1 0 1 0 1 0 1-1 0-1 0-2 0 0 0 0 1 0 1-1 0-1 0-2 0l-194 0c-9 0-16-7-16-16l0-131-10 0c-13 0-23-10-23-23l0-119c0-13 10-23 23-23l10 0 0-82c0-9 7-16 16-16l265 0c9 0 16 7 16 16l0 82 10 0c12 0 23 10 23 23l0 119c0 13-11 23-23 23z m-291 131l186 0 0-82c0-5 4-8 8-8l71 0 0-41-265 0z m163-187c0-12-3-22-11-29-9-9-22-13-39-13-3 0-6 1-9 1l0-43-27 0 0 118c9 2 20 3 37 3 17 0 29-3 37-10 7-6 12-16 12-27z m-171-83l3 22c4-1 9-2 14-2 12 0 19 5 19 24l0 75 27 0 0-76c0-34-17-46-43-46-6 0-14 1-20 3z m273-103l-265 0 0 77 265 0 0-77z m16 108c-8-3-24-7-40-7-22 0-38 5-49 16-11 10-17 26-17 44 0 40 29 62 69 62 15 0 27-3 33-6l-6-21c-6 3-14 5-28 5-22 0-39-13-39-39 0-25 15-39 37-39 7 0 12 0 14 2l0 25-19 0 0 21 45 0z"/>
<glyph glyph-name="gif-1" unicode="&#57497;" d="M414 314l-9 0 0 48c0 0 0 0-1 1 0 2 0 3-1 5l-79 90c0 0 0 0 0 0-1 1-1 1-2 1 0 1 0 1-1 1 0 0-1 0-1 0 0 0 0 1-1 1 0 0-1 0-1 0l-195 0c-8 0-16-7-16-16l0-131-9 0c-13 0-23-10-23-23l0-119c0-13 10-23 23-23l9 0 0-82c0-9 8-16 16-16l266 0c8 0 16 7 16 16l0 82 9 0c13 0 23 10 23 23l0 119c0 13-10 23-23 23z m-25-242l-266 0 0 77 266 0 0-77z m-194 119c7 0 12 1 14 2l0 25-19 0 0 21 45 0 0-63c-9-3-24-7-40-7-22 0-38 5-49 16-11 10-17 26-17 44 0 40 29 62 69 62 15 0 27-3 33-5l-6-22c-6 3-15 5-28 5-22 0-39-13-39-39 0-25 15-39 37-39z m61-21l0 120 27 0 0-120z m121 71l0-23-43 0 0-48-27 0 0 120 73 0 0-22-46 0 0-27z m12 73l-266 0 0 131 187 0 0-82c0-5 3-8 8-8l71 0 0-41z"/>
<glyph glyph-name="tiff-1" unicode="&#57498;" d="M414 314l-9 0 0 48c0 0 0 0-1 1 0 2 0 3-1 5l-79 90c0 0 0 0 0 0-1 1-1 1-2 1 0 1 0 1-1 1 0 0-1 0-1 0 0 0 0 1-1 1 0 0-1 0-1 0l-195 0c-8 0-16-7-16-16l0-131-9 0c-13 0-23-10-23-23l0-119c0-13 10-23 23-23l9 0 0-82c0-9 8-16 16-16l266 0c8 0 16 7 16 16l0 82 9 0c13 0 23 10 23 23l0 119c0 13-10 23-23 23z m-291 131l187 0 0-82c0-5 3-8 8-8l71 0 0-41-266 0z m199-200l0-22-43 0 0-49-28 0 0 120 74 0 0-22-46 0 0-27z m-94 49l0-120-27 0 0 120z m-134-22l0 22 92 0 0-22-33 0 0-98-27 0 0 98z m295-200l-266 0 0 77 266 0 0-77z m29 200l-46 0 0-27 43 0 0-22-43 0 0-49-27 0 0 120 73 0z"/>
<glyph glyph-name="png-1" unicode="&#57499;" d="M158 255c0 10-7 17-20 17-5 0-9-1-10-1l0-34c2 0 4 0 8 0 14 0 22 6 22 18z m254 59l-10 0 0 48c0 0 0 0 0 1 0 2 0 3-2 5l-79 90c0 0 0 0 0 0 0 1-1 1-1 1 0 1-1 1-1 1 0 0-1 0-1 0 0 0-1 1-1 1 0 0-1 0-2 0l-194 0c-9 0-16-7-16-16l0-131-10 0c-12 0-23-10-23-23l0-119c0-13 11-23 23-23l10 0 0-82c0-9 7-16 16-16l265 0c9 0 16 7 16 16l0 82 10 0c13 0 23 10 23 23l0 119c0 13-10 23-23 23z m-291 131l186 0 0-82c0-5 4-8 8-8l71 0 0-41-265 0z m102-234l0-34-23 0 0 113 30 0 23-41c7-12 14-26 19-39l0 0c-2 15-2 30-2 47l0 33 23 0 0-113-26 0-25 44c-6 12-14 26-19 40l-1-1c1-15 1-30 1-49z m-121-34l0 112c8 1 19 2 35 2 16 0 27-3 34-9 8-6 12-15 12-26 0-11-3-21-10-27-9-8-22-12-37-12-3 0-6 0-8 0l0-40-26 0z m284-105l-265 0 0 77 265 0 0-77z m24 110c-8-3-23-6-38-6-20 0-35 5-46 15-10 10-16 25-16 41 1 38 28 59 65 59 15 0 26-3 31-5l-5-21c-6 3-14 5-26 5-22 0-38-12-38-36 0-24 15-38 36-38 6 0 10 1 13 2l0 24-18 0 0 20 42 0 0-60z"/>
<glyph glyph-name="txt-1" unicode="&#57500;" d="M414 314l-9 0 0 48c0 0 0 0-1 1 0 2 0 3-1 5l-79 90c0 0 0 0 0 0-1 1-1 1-2 1 0 1 0 1-1 1 0 0-1 0-1 0 0 0 0 1-1 1 0 0-1 0-1 0l-195 0c-8 0-16-7-16-16l0-131-9 0c-13 0-23-10-23-23l0-119c0-13 10-23 23-23l9 0 0-82c0-9 8-16 16-16l266 0c8 0 16 7 16 16l0 82 9 0c13 0 23 10 23 23l0 119c0 13-10 23-23 23z m-291 131l187 0 0-82c0-5 3-8 8-8l71 0 0-41-266 0z m80-152l31 0 10-22c4-8 7-13 9-20l1 0c3 8 5 13 8 20l10 22 31 0-34-59 36-61-31 0-11 21c-5 9-8 15-11 22l0 0c-3-7-6-13-10-22l-10-21-31 0 35 60z m-102-23l0 23 92 0 0-23-33 0 0-97-27 0 0 97z m288-198l-266 0 0 77 266 0 0-77z m15 198l-33 0 0-97-27 0 0 97-33 0 0 23 93 0 0-23z"/>
<glyph glyph-name="pptx-1" unicode="&#57501;" d="M215 265c-4 0-7-1-8-1l0-26c2-1 4-1 7-1 10 0 17 6 17 15 0 8-6 13-16 13z m197 49l-10 0 0 48c0 0 0 0 0 1 0 2 0 3-2 5l-79 90c0 0 0 0 0 0 0 1-1 1-1 1 0 1-1 1-1 1 0 0-1 0-1 0 0 0-1 1-1 1 0 0-1 0-2 0l-194 0c-9 0-16-7-16-16l0-131-10 0c-12 0-23-10-23-23l0-119c0-13 11-23 23-23l10 0 0-82c0-9 7-16 16-16l265 0c9 0 16 7 16 16l0 82 10 0c13 0 23 10 23 23l0 119c0 13-10 23-23 23z m-291 131l186 0 0-82c0-5 4-8 8-8l71 0 0-41-265 0z m136-183l0 17 69 0 0-17-25 0 0-72-20 0 0 72z m-6-10c0-9-3-16-8-21-7-6-17-9-29-9-3 0-5 0-7 0l0-32-20 0 0 88c6 1 15 2 27 2 13 0 22-2 28-7 5-5 9-12 9-21z m-141-62l0 88c6 1 15 2 27 2 13 0 22-2 28-7 5-5 9-12 9-21 0-8-3-16-8-21-7-6-17-9-29-9-3 0-5 0-7 0l0-32z m276-118l-265 0 0 77 265 0 0-77z m0 118l-8 16c-3 6-6 11-8 16l0 0c-2-5-4-10-7-16l-8-16-23 0 26 45-25 44 23 0 8-16c3-5 5-10 7-15l0 0c2 6 4 10 6 15l8 16 23 0-25-43 26-46-23 0z m-232 62c0 8-6 13-16 13-4 0-7-1-8-1l0-26c2-1 4-1 7-1 10 0 17 6 17 15z"/>
<glyph glyph-name="ppt-1" unicode="&#57502;" d="M258 273c-6 0-9 0-11-1l0-35c2-1 5-1 9-1 14 0 23 7 23 20 0 11-8 17-21 17z m-82-17c0 11-8 17-22 17-5 0-9 0-11-1l0-35c3-1 5-1 9-1 15 0 24 7 24 20z m236 58l-10 0 0 48c0 0 0 0 0 1 0 2 0 3-2 5l-79 90c0 0 0 0 0 0 0 1-1 1-1 1 0 1-1 1-1 1 0 0-1 0-1 0 0 0-1 1-1 1 0 0-1 0-2 0l-194 0c-9 0-16-7-16-16l0-131-10 0c-12 0-23-10-23-23l0-119c0-13 11-23 23-23l10 0 0-82c0-9 7-16 16-16l265 0c9 0 16 7 16 16l0 82 10 0c13 0 23 10 23 23l0 119c0 13-10 23-23 23z m-291 131l186 0 0-82c0-5 4-8 8-8l71 0 0-41-265 0z m185-189c0-11-4-21-11-28-9-9-23-13-39-13-4 0-7 0-9 1l0-43-27 0 0 118c8 2 20 3 36 3 17 0 29-4 37-10 8-6 13-16 13-28z m-190-83l0 118c9 2 21 3 37 3 17 0 29-4 37-10 7-6 12-16 12-28 0-11-3-21-11-28-9-9-23-13-39-13-3 0-6 0-9 1l0-43z m270-101l-265 0 0 77 265 0 0-77z m20 198l-32 0 0-97-28 0 0 97-32 0 0 23 92 0 0-23z"/>
<glyph glyph-name="pps-1" unicode="&#57503;" d="M412 314l-10 0 0 48c0 0 0 0 0 1 0 2 0 3-2 5l-79 90c0 0 0 0 0 0 0 1-1 1-1 1 0 1-1 1-1 1 0 0-1 0-1 0 0 0-1 1-1 1 0 0-1 0-2 0l-194 0c-9 0-16-7-16-16l0-131-10 0c-12 0-23-10-23-23l0-119c0-13 11-23 23-23l10 0 0-82c0-9 7-16 16-16l265 0c9 0 16 7 16 16l0 82 10 0c13 0 23 10 23 23l0 119c0 13-10 23-23 23z m-26-242l-265 0 0 77 265 0 0-77z m-259 110l0 107c7 2 18 2 33 2 15 0 26-2 33-8 7-6 12-15 12-25 0-11-4-20-10-26-9-8-21-12-36-12-3 0-6 0-8 1l0-39-24 0z m93 0l0 107c8 2 19 2 34 2 15 0 26-2 33-8 7-6 12-15 12-25 0-11-4-20-10-26-9-8-21-12-36-12-3 0-6 0-8 1l0-39-25 0z m121 46c-18 6-29 16-29 32 0 18 15 32 41 32 12 0 21-2 28-5l-6-20c-4 2-12 5-23 5-10 0-16-5-16-10 0-7 7-10 21-16 19-7 28-17 28-32 0-18-14-34-44-34-12 0-25 3-31 7l5 20c7-3 17-7 27-7 12 0 18 5 18 12 0 7-6 11-19 16z m45 86l-265 0 0 131 186 0 0-82c0-5 4-8 8-8l71 0z m-206-57c0 10-7 16-19 16-5 0-8-1-10-1l0-32c2-1 5-1 8-1 13 0 21 7 21 18z m94 0c0 10-7 16-19 16-5 0-8-1-10-1l0-32c2-1 4-1 8-1 13 0 21 7 21 18z"/>
<glyph glyph-name="pdf-3" unicode="&#57504;" d="M168 251c0 11-7 18-21 18-5 0-9-1-11-2l0-35c2 0 5-1 9-1 14 0 23 8 23 20z m84 17c-6 0-10 0-12-1l0-78c2-1 6-1 9-1 25 0 41 13 41 42 0 25-15 38-38 38z m160 46l-10 0 0 48c0 0 0 0 0 1 0 2 0 3-2 5l-79 90c0 0 0 0 0 0 0 1-1 1-1 1 0 1-1 1-1 1 0 0-1 0-1 0 0 0-1 1-1 1 0 0-1 0-2 0l-194 0c-9 0-16-7-16-16l0-131-10 0c-12 0-23-10-23-23l0-119c0-13 11-23 23-23l10 0 0-82c0-9 7-16 16-16l265 0c9 0 16 7 16 16l0 82 10 0c13 0 23 10 23 23l0 119c0 13-10 23-23 23z m-291 131l186 0 0-82c0-5 4-8 8-8l71 0 0-41-265 0z m198-214c0-23-9-39-20-49-13-10-32-15-56-15-14 0-24 1-31 2l0 117c10 2 23 3 37 3 23 0 38-4 49-13 13-9 21-24 21-45z m-210-63l0 119c8 1 20 2 37 2 16 0 28-3 36-10 8-6 13-16 13-27 0-12-4-22-11-29-9-9-23-12-39-12-3 0-7 0-9 0l0-43z m277-96l-265 0 0 77 265 0 0-77z m24 194l-46 0 0-28 43 0 0-22-43 0 0-48-28 0 0 120 74 0z"/>
<glyph glyph-name="mp4-1" unicode="&#57505;" d="M363 245l-15-24 0 0 24 0 0 24c0 6 1 13 1 20l0 0c-4-7-7-13-10-20z m49 69l-10 0 0 48c0 0 0 0 0 1 0 2 0 3-2 5l-79 90c0 0 0 0 0 0 0 1-1 1-1 1 0 1-1 1-1 1 0 0-1 0-1 0 0 0-1 1-1 1 0 0-1 0-2 0l-194 0c-9 0-16-7-16-16l0-131-10 0c-12 0-23-10-23-23l0-119c0-13 11-23 23-23l10 0 0-82c0-9 7-16 16-16l265 0c9 0 16 7 16 16l0 82 10 0c13 0 23 10 23 23l0 119c0 13-10 23-23 23z m-291 131l186 0 0-82c0-5 4-8 8-8l71 0 0-41-265 0z m194-191c0-11-4-20-10-27-9-8-22-12-37-12-3 0-6 1-9 1l0-40-25 0 0 111c8 1 19 2 35 2 15 0 27-3 34-9 7-5 12-15 12-26z m-197 11l0 0c-1-15-2-32-2-47l-2-42-24 0 7 112 34 0 11-37c4-13 7-27 10-41l0 0c3 14 7 28 11 41l12 37 33 0 7-112-25 0-2 43c-1 13-1 30-1 46l-1 0c-3-14-8-30-12-44l-14-44-20 0-12 44c-4 13-7 29-10 44z m268-193l-265 0 0 77 265 0 0-77z m24 130l-13 0 0-26-25 0 0 26-48 0 0 16 41 66 32 0 0-63 13 0z m-140 68c-5 0-9 0-11-1l0-33c3-1 5-1 9-1 14 0 22 7 22 18 0 11-7 17-20 17z"/>
<glyph glyph-name="zip-2" unicode="&#57506;" d="M414 314l-9 0 0 48c0 0 0 0-1 1 0 2 0 3-1 5l-79 90c0 0 0 0 0 0-1 1-1 1-2 1 0 1 0 1-1 1 0 0-1 0-1 0 0 0 0 1-1 1 0 0-1 0-1 0l-195 0c-8 0-16-7-16-16l0-131-9 0c-13 0-23-10-23-23l0-119c0-13 10-23 23-23l9 0 0-82c0-9 8-16 16-16l266 0c8 0 16 7 16 16l0 82 9 0c13 0 23 10 23 23l0 119c0 13-10 23-23 23z m-291 131l187 0 0-82c0-5 3-8 8-8l71 0 0-41-266 0z m153-151l0-120-28 0 0 120z m-150-23l0 23 87 0 0-16-55-81 0-1 56 0 0-22-93 0 0 14 57 83 0 0z m263-199l-266 0 0 77 266 0 0-77z m2 157c-9-9-23-13-39-13-3 0-6 0-9 1l0-43-27 0 0 118c9 2 20 3 37 3 17 0 29-4 37-10 7-6 12-16 12-28 0-11-4-21-11-28z m-39 45c-5 0-9 0-11-1l0-35c2-1 5-1 9-1 14 0 23 7 23 20 0 11-7 17-21 17z"/>
<glyph glyph-name="avi-1" unicode="&#57507;" d="M180 257c-2 7-4 16-6 23l0 0c-2-7-4-16-6-23l-7-25 27 0z m232 57l-10 0 0 48c0 0 0 0 0 1 0 2 0 3-2 5l-79 90c0 0 0 0 0 0 0 1-1 1-1 1 0 1-1 1-1 1 0 0-1 0-1 0 0 0-1 1-1 1 0 0-1 0-2 0l-194 0c-9 0-16-7-16-16l0-131-10 0c-12 0-23-10-23-23l0-119c0-13 11-23 23-23l10 0 0-82c0-9 7-16 16-16l265 0c9 0 16 7 16 16l0 82 10 0c13 0 23 10 23 23l0 119c0 13-10 23-23 23z m-291-140l36 120 36 0 37-120-29 0-9 31-35 0-8-31z m105 120l29 0 15-51c4-14 8-28 11-43l0 0c3 14 7 29 11 42l15 52 29 0-40-120-32 0z m160-222l-265 0 0 77 265 0 0-77z m-37 102l0 120 27 0 0-120z m37 140l-265 0 0 131 186 0 0-82c0-5 4-8 8-8l71 0z"/>
<glyph glyph-name="mp3-4" unicode="&#57508;" d="M413 314l-10 0 0 48c0 0 0 0 0 1 0 2 0 3-2 5l-79 90c0 0 0 0 0 0 0 1-1 1-1 1-1 1-1 1-1 1 0 0-1 0-1 0-1 0-1 1-1 1 0 0-1 0-2 0l-194 0c-9 0-16-7-16-16l0-131-10 0c-12 0-23-10-23-23l0-119c0-13 11-23 23-23l10 0 0-82c0-9 7-16 16-16l265 0c9 0 16 7 16 16l0 82 10 0c13 0 23 10 23 23l0 119c0 13-10 23-23 23z m-291 131l186 0 0-82c0-5 4-8 8-8l71 0 0-41-265 0z m209-189c0-10-3-20-10-26-8-8-21-11-35-11-3 0-6 0-9 0l0-39-24 0 0 108c8 1 18 2 33 2 16 0 26-3 34-9 7-5 11-14 11-25z m-218-76l7 109 33 0 11-36c3-13 7-26 9-39l1 0c3 13 7 27 10 39l12 36 32 0 6-109-24 0-2 42c0 13-1 29-1 45l0 0c-4-14-8-30-12-42l-14-43-19 0-12 42c-3 13-7 29-10 43l0 0c0-15-1-32-2-45l-2-42z m274-108l-265 0 0 77 265 0 0-77z m-13 106c-14 0-25 4-31 8l5 18c4-2 14-6 24-6 13 0 19 6 19 14 0 10-10 15-21 15l-10 0 0 18 10 0c8 0 19 3 19 12 0 6-6 11-16 11-9 0-18-4-22-6l-5 17c6 4 19 8 33 8 22 0 35-12 35-26 0-11-7-20-20-24l0-1c13-2 23-12 23-25 0-19-16-33-43-33z m-86 95c-5 0-9-1-11-1l0-32c3-1 5-1 9-1 13 0 21 7 21 18 0 10-7 16-19 16z"/>
<glyph glyph-name="pptx-3" unicode="&#57509;" d="M244 407c-79-6-142-71-142-152 0-19 4-37 10-53l132 58z m-125-220c25-50 76-84 136-84 51 0 96 26 124 64l-125 79z m145 222l0-146 126-80c13 22 20 47 20 74 0 82-65 149-146 152z"/>
<glyph glyph-name="tw" unicode="&#57511;" d="M349 162l-93 0c-13 0-24 5-33 14-9 9-13 20-13 33l0 33 132 0c12 0 22 4 31 12 8 9 12 19 12 31 0 12-4 22-12 31-9 8-19 13-31 13l-132 0 0 68c0 13-5 24-14 33-9 9-20 14-33 14-13 0-24-5-33-14-9-9-14-20-14-33l0-188c0-39 14-72 41-100 28-27 61-41 99-41l93 0c13 0 24 5 33 14 9 9 14 20 14 33 0 13-5 24-14 33-9 10-20 14-33 14z"/>
<glyph glyph-name="tw-2" unicode="&#57512;" d="M331 242c15 0 28 5 39 15l0 0c11 10 17 22 17 37 0 14-6 26-17 36-11 10-24 15-39 15-4 0-7 0-10 0l-95 0-1 47c0 0 0 5 0 6 0 12-6 23-16 31-10 10-23 15-38 15-15 0-28-5-38-14 0-1-1-1-1-1-9-8-14-18-15-29 0-1-1-2-1-3l0-224c1-16 4-31 11-43 0-1 1-2 2-3 1-1 5-7 12-17 1 0 1 0 1 0 6-8 14-15 23-20 0 0 0 0 0 0 19-10 40-17 62-20 1 0 1 0 1 0 0 0 1 0 1 0 16-1 50-2 100-2 2 0 3 1 4 1 14 1 26 6 36 15l1 0c11 10 16 22 16 36 0 14-5 26-16 37-11 9-23 14-38 15-1 0-1 0-2 0-21 1-37 1-48 1l-31 0c-1 0-1 0-2 0 0 0-1 1-2 1 0 1-1 1-2 1-2 1-5 3-6 4-1 1-1 1-2 1-4 4-6 10-6 15l0 46z m-10 81c1 0 5 0 5 0 3 0 4 0 6 0 9 0 16-2 22-8 7-6 10-13 10-21 0-8-3-16-10-21l0 0c-7-6-14-9-22-9-2 0-5 0-6 0 0 1-1 1-2 1l-108-1c-2 0-5-1-6-2l0 0c-2-2-2-4-2-6l0-61c0-12 5-22 14-31 0 0 1 0 1 0 5-5 9-7 14-9 0-1 0-1 1-1 1 0 2 0 3-1 2-1 3-1 5-2l37 0c10 0 25 0 45-1 1 0 2 0 2 0 1 0 1 0 1 0 9 0 16-3 23-9 6-6 10-13 10-21 0-8-4-15-10-20l0 0c-7-6-14-9-23-9 0 0 0 0-1 0 0 0-1 0-2-1-48 0-80 1-96 2-19 3-37 9-54 17l1 0c-7 4-12 9-17 14-6 9-11 14-12 16-5 10-8 22-8 35l0 221c0 0 0 1 0 1 0 7 3 12 8 18l0 0 0 0c6 5 13 8 22 8 9 0 16-3 22-8 5-5 8-11 9-18l0-66c0-1 2-3 3-5 2-1 3-2 5-2z"/>
<glyph glyph-name="print-1" unicode="&#57513;" d="M158 428l196 0 0-49-196 0z m270-74l-344 0c-13 0-24-11-24-24l0-123c0-14 11-25 24-25l74 0 0-98 196 0 0 98 74 0c13 0 24 11 24 25l0 123c0 13-11 24-24 24z m-98-245l-148 0 0 122 148 0z m103 208c0-9-8-17-18-17-9 0-17 8-17 17 0 10 8 18 17 18 10 0 18-8 18-18z"/>
<glyph glyph-name="print-2" unicode="&#57514;" d="M383 355l0 80-244 0 0-80-79 0 0-184 79 0 0-94 172 0 72 73 0 21 69 0 0 184z m-25 55l0-55-194 0 0 55z m51-228l-26 0 0 66-25 0 0-78-75 0 0-68-119 0 0 146-25 0 0-66-26 0 0 93 296 0 0-93z m32 134l-57 0 0 13 57 0z"/>
<glyph glyph-name="windows" unicode="&#57515;" d="M244 251l-37-125c-31 21-66 38-139 8l36 124 0 0c73 30 108 14 140-7z m19-12l-36-124c31-21 66-39 139-8l35 120c-74-25-107-10-138 12z m-13 34l36 124c-32 21-67 39-140 8l-36-124c29 12 52 17 71 17 29 0 50-12 69-25z m54 111l-35-125c31-21 69-38 139-7l36 124c-73-30-108-13-140 8z"/>
<glyph glyph-name="snapshot-2" unicode="&#57516;" d="M444 101l0-21-376 0 0 352 21 0 0-331z m-286 129l53-37 28 27 30-18 46 24 32-32 66 100-8 6-60-90-29 28-46-25-32 20-28-27-51 36-58-26 4-9z m-1 83l55-63 28 64 28-43 47 40 32-33 66 100-8 6-60-90-29 31-46-39-32 49-29-66-50 57-58-26 4-10z"/>
<glyph glyph-name="mail-1" unicode="&#57517;" d="M440 387l-368 0c-2 0-4-2-4-4l0-254c0-2 2-4 4-4l368 0c2 0 4 2 4 4l0 254c0 2-2 4-4 4z m-62-33l-122-89-122 89z m33-196l-310 0 0 180 153-112c1-1 3-1 4 0l153 112 0-180z"/>
<glyph glyph-name="mail-2" unicode="&#57518;" d="M440 308l-3 0-41 36-23-23 30-26-25-20-122-89-122 89-24 19 29 25 0 44-63-55-4 0c-2 0-4-2-4-4l0-253c0-2 2-4 4-4l368 0c2 0 4 2 4 4l0 253c0 2-2 4-4 4z m-29-229l-310 0 0 180 153-112c1-1 3-1 4 0l153 112 0-180z m-179 322l-50 0 74 64 75-64-50 0-25 21z m-68-131l-17 14 0 108 205 0 0-5c-4-3-10-7-16-13l0 2-172 0z m205 102l2 2c4 3 9 4 13 2l7 7 10-10-6-7c2-4 1-10-3-14l-100-100c-3-2-7-4-10-3-12-8-21-12-24-9-3 3 1 12 9 23 0 4 1 8 4 11l89 88c-7-3-20-12-44-36-1-2-4-2-6 0-1 1-1 4 0 6 39 40 53 42 59 40z"/>
<glyph glyph-name="mail-3" unicode="&#57519;" d="M440 414l-338 0c-2 0-4-1-4-3l0-184 30 23 0 120 141-103c1-1 3-1 4 0l141 103 0-166-123 0c0-1 0-2 0-4l0-26 149 0c2 0 4 2 4 4l0 233c0 2-2 3-4 3z m-169-112l-112 82 224 0z m-120-105l-9-23 9-23 19-48c1-2 0-4-1-5-1 0-2 0-3 0 0 0-1 0-2 0l-94 73c-1 1-2 2-2 3 0 1 1 2 2 3l94 73c1 1 3 1 5 0 1-1 2-3 1-5z m86 0l-9-23 9-23 19-48c0-2 0-4-2-5 0 0-1 0-2 0-1 0-2 0-2 0l-95 73c0 1-1 2-1 3 0 1 1 2 1 3l95 73c1 1 3 1 4 0 2-1 2-3 2-5z"/>
<glyph glyph-name="instagram" unicode="&#57520;" d="M400 354c0-13-11-24-24-24l-22 0c-13 0-24 11-24 24l0 22c0 13 11 24 24 24l22 0c13 0 24-11 24-24z m0-218c0-13-12-24-25-24l-237 0c-13 0-26 11-26 24l0 118c0 13 13 24 26 24 0 0 6 0 13 0 1 0 2 0 3 0 5-1 8-5 9-10 0 0 0-1 0-2-1-1 1-1 1-2-1-3 0-7 0-10l0 0c0-52 40-94 92-95-1 0-2 0-2 0 0 0 0 0 1 0 1 0 1 0 2 0 52 0 94 43 94 95 0 3 0 7-1 10 0 1 0 1 0 2 0 1 0 2 0 2 1 5 4 9 9 10 1 0 2 0 2 0l14 0c13 0 25-11 25-24l0-118z m-191 118c0 0 4 47 47 47 44 0 48-47 48-47 0 0 1-47-48-47-48 0-47 47-47 47z m187 190l-280 0c-27 0-48-21-48-48l0-280c0-27 21-48 48-48l280 0c27 0 48 21 48 48l0 280c0 27-21 48-48 48"/>
<glyph glyph-name="faq-1" unicode="&#57521;" d="M256 444c-104 0-188-84-188-188 0-103 84-188 188-188 104 0 188 85 188 188 0 104-84 188-188 188z m0-339c-83 0-150 68-150 151 0 83 67 151 150 151 83 0 150-68 150-151 0-83-67-151-150-151z m0 269c-65 0-118-53-118-118 0-65 53-118 118-118 65 0 118 53 118 118 0 65-53 118-118 118z m9-186c-3-3-6-4-10-4-4 0-7 1-10 4-3 2-5 6-5 10 0 4 2 8 5 10 2 3 6 4 10 4 4 0 7-1 10-4 3-2 4-6 4-10 0-4-1-8-4-10z m35 88c-2-4-5-8-8-11-3-3-8-8-16-15-2-1-4-3-5-5-1-1-2-3-3-4 0-1-1-2-1-4-1-1-1-3-2-6-1-7-5-10-11-10-3 0-6 1-8 3-3 2-4 6-4 10 0 5 1 10 3 14 1 4 3 7 6 10 3 3 7 6 11 11 4 3 7 6 9 8 2 1 3 3 5 6 1 2 1 4 1 7 0 5-1 9-5 13-4 3-9 5-15 5-7 0-12-2-15-5-4-4-6-9-9-16-2-7-6-11-12-11-3 0-6 2-9 4-2 3-3 5-3 8 0 6 1 12 5 18 4 7 10 12 17 16 8 4 16 6 26 6 9 0 18-2 25-5 7-4 12-8 16-14 4-6 6-12 6-19-1-5-2-10-4-14z"/>
<glyph glyph-name="faq-2" unicode="&#57522;" d="M390 444l-268 0c-27 0-50-23-50-50l0-205c0-27 23-49 50-49l29 0c0 0-21-49-31-72 30 29 73 72 73 72l197 0c27 0 50 22 50 49l0 205c0 27-23 50-50 50z m-126-241c-3-3-7-4-11-4-4 0-8 1-11 4-3 3-5 7-5 12 0 4 2 8 5 11 3 3 7 4 11 4 4 0 8-1 11-4 3-3 4-7 4-11 0-5-1-9-4-12z m38 113c-2-5-8-12-18-21-13-12-21-20-24-26-2-5-4-14-4-27l-7 0c0 10 1 19 2 24 1 6 2 11 4 14 1 4 6 10 13 19 5 7 9 14 11 20 2 7 4 14 4 21 0 10-3 19-9 25-6 6-13 9-21 9-7 0-13-1-18-5-5-4-7-7-7-11 0-2 1-4 5-7 5-4 7-8 7-13 0-4-1-8-4-10-2-3-6-5-10-5-5 0-9 2-12 6-4 4-5 9-5 16 0 10 4 19 14 27 9 8 20 12 34 12 15 0 27-5 36-14 9-9 14-19 14-32 0-8-2-16-5-22z"/>
<glyph glyph-name="faq" unicode="&#57523;" d="M249 143c20 0 37-16 37-37 0-21-17-38-37-38-21 0-38 17-38 38 0 21 17 37 38 37z m7 301c66 0 120-43 120-105 0-23-15-60-45-75-30-16-45-36-45-61l0-30-75 0 0 23c0 51 45 83 60 98 30 30 30 34 30 45 0 24-20 45-45 45-25 0-45-21-45-45l0-23-75 0 0 15c0 62 54 113 120 113z"/>
<glyph glyph-name="arw-arw-d45" unicode="&#57525;" d="M409 310l-12-195-195-12c-13 0-24-11-24-24 0-14 11-25 24-25l217 14c7 0 13 3 18 7 4 5 7 11 7 18l14 217c0 13-11 24-25 24-13 0-24-11-24-24z m-113-119c7 0 13 3 17 8 5 4 8 10 8 17l13 217c0 14-11 25-24 25-14 0-25-11-25-25l-12-194-194-12c-14 0-25-11-25-25 0-13 11-24 25-24z"/>
<glyph glyph-name="arw-arw-d45-1" unicode="&#57526;" d="M402 258l-146-129-146 129c-9 10-25 10-34 0-10-10-10-25-1-35l163-144c5-5 12-7 18-7 6 0 13 2 18 7l163 144c9 10 9 25 0 35-10 10-26 10-35 0z m-164-4c5-5 12-7 18-7 6 0 13 2 18 7l163 144c9 10 9 25 0 35-10 9-26 9-35 0l-146-129-146 129c-9 9-25 9-34 0-10-10-10-25 0-35z"/>
<glyph glyph-name="arw-arw-d-1" unicode="&#57527;" d="M68 256l188 188 0-94-94-94 94-94 0-94z m376-188l0 94-94 94 94 94 0 94-188-188z"/>
<glyph glyph-name="arw-arw-l" unicode="&#57528;" d="M258 110l-129 146 129 146c10 9 10 25 0 34-10 10-25 10-35 1l-144-163c-5-5-7-12-7-18 0-6 2-13 7-18l144-163c10-9 25-9 35 0 10 10 10 26 0 35z m-4 164c-5-5-7-12-7-18 0-6 2-13 7-18l144-163c10-9 25-9 35 0 9 10 9 26 0 35l-129 146 129 146c9 9 9 25 0 34-10 10-25 10-35 0z"/>
<glyph glyph-name="arw-arw-l-1" unicode="&#57529;" d="M444 256l-188-188 0 94 94 94-94 94 0 94z m-376 188l0-94 94-94-94-94 0-94 188 188z"/>
<glyph glyph-name="arw-arw-r" unicode="&#57530;" d="M254 402l129-146-129-146c-10-9-10-25 0-34 10-10 25-10 35-1l144 163c5 5 7 12 7 18 0 6-2 13-7 18l-144 163c-10 9-25 9-35 0-10-10-10-26 0-35z m4-164c5 5 7 12 7 18 0 6-2 13-7 18l-144 163c-10 9-25 9-35 0-9-10-9-26 0-35l129-146-129-146c-9-9-9-25 0-34 10-10 25-10 35 0z"/>
<glyph glyph-name="arw-arw-r-1" unicode="&#57531;" d="M256 444l188-188-94 0-94 94-94-94-94 0z m-188-376l94 0 94 94 94-94 94 0-188 188z"/>
</font>
</defs>
</svg>
