<?xml version="1.0" encoding="UTF-8"?>
<svg width="326px" height="59px" viewBox="0 0 326 59" version="1.1" xmlns="http://www.w3.org/2000/svg" xmlns:xlink="http://www.w3.org/1999/xlink">
    <title>Logo</title>
    <g id="Pages" stroke="none" stroke-width="1" fill="none" fill-rule="evenodd">
        <g id="Logo">
            <path d="M39.7763718,12.7361519 C42.8880599,16.5006986 51.2674746,15.2459963 53.7069537,10.4239902 C54.6667811,8.52610453 54.7336282,6.02241712 53.7788583,4.00315122 C52.2556681,0.78239682 48.5296025,-0.367197226 45.6204347,0.100072733 C42.1043657,0.664754736 38.9768454,3.72059032 38.5291458,7.48315798 C38.4673562,8.00034337 38.1394976,10.7558068 39.7763718,12.7361519" id="Fill-1" fill="#8ECB36"></path>
            <path d="M34.5244114,11.5118386 C34.5424425,11.6266221 34.5624526,11.7502013 34.5945568,11.9177588 C34.7484811,12.7194841 35.1383491,14.2626844 36.0981766,15.5083711 C37.7627571,17.6688075 40.7363532,18.1334388 41.9963329,18.3027554 C43.3106258,18.4793285 44.0138396,18.3282629 45.6843572,18.7649679 C46.2206732,18.9052588 47.1633491,19.1517574 48.1458254,19.6676235 C49.1410555,20.1900863 51.4338667,21.3939936 52.2637382,24.0100457 C52.9939986,26.3129719 52.3840189,29.0583204 50.8051962,30.8218522 C48.2285047,33.6997953 44.1602876,32.7459049 42.8802977,32.4459726 C42.2498681,32.2982053 38.4125372,31.3594875 36.426475,27.8629888 C34.963975,25.2878366 35.884002,23.6958204 33.9386198,21.289545 C33.5632645,20.8253535 32.1753078,19.107999 29.9618775,18.5910335 C29.8134506,18.5562906 29.6870129,18.533202 29.5618945,18.5178095 C27.9830717,18.3251844 26.804452,18.4542608 26.3958931,18.4999983 C25.0118945,18.6548021 23.1289614,18.1978671 21.9307713,17.2701438 C19.6995298,15.5428941 19.7206394,12.0897141 19.7239378,11.5536181 C19.7512043,7.14940629 23.1577673,4.45243403 23.6041475,4.11116204 C24.3902605,3.50997801 28.1088498,0.861821719 31.3863363,2.61194012 C32.6489547,3.28634811 34.3904973,4.90409168 34.5024222,6.82748478 C34.5626725,7.85921685 34.1690663,9.24123647 34.5244114,11.5118386" id="Fill-3" fill="#13907E"></path>
            <path d="M15.5680937,12.4685876 C15.8394401,9.72763701 16.0991323,7.10608762 14.7342642,4.98391238 C13.7469503,3.44928789 11.9955125,2.36170332 10.1189564,2.22866881 C6.65588126,1.98304973 4.44530954,5.12926083 4.09788058,5.62379736 C2.3950389,8.04744418 2.49223106,10.6980193 2.53664919,11.9118217 C2.57974797,13.087363 2.67628045,15.0065781 3.881727,16.8710403 C5.0190071,18.630614 6.58243742,19.4589462 7.51873647,19.9548021 C9.1989293,20.8449239 9.70204161,20.6331681 11.8923833,21.7722074 C12.839457,22.264545 13.8626133,22.7841492 14.6562026,23.5592676 C15.3288515,24.2160842 15.6646262,24.9564597 16.3091289,26.410384 C16.6759083,27.2376167 16.6299509,27.3150186 17.3309658,29.1680463 C17.8492507,30.5381918 18.108503,31.2233745 18.3433474,31.6418285 C18.4022784,31.7469367 19.2952588,33.3930463 20.8085538,34.3132933 C22.4852283,35.3327114 24.058114,35.1889022 25.6204449,35.2174882 C26.9703603,35.242116 34.0236079,35.5295145 36.8725254,39.698662 C37.8578603,41.1407121 38.4201235,43.1639361 38.7314902,44.2840646 C39.1791898,45.8956512 38.8693623,45.7443657 39.48352,48.0978671 C40.1950896,50.8251844 40.8125457,53.0520281 42.4944976,54.4153569 C43.8886113,55.5456005 46.2632223,56.2703637 48.2039868,55.3710064 C52.1761113,53.5309523 51.4955463,45.9994401 51.3985741,45.0455497 C51.1861587,42.9537196 50.9691255,40.8154922 49.4276844,39.2531614 C47.5282595,37.328229 44.1036654,36.7703637 40.2630362,36.1445518 C40.1218657,36.1214631 39.5774137,36.0337263 38.8590274,35.8202114 C38.6822344,35.7678772 38.4973055,35.7065274 38.2941255,35.6311045 C36.2286823,34.8667608 34.9238447,33.5392744 33.7425863,32.3118386 C32.6769909,31.2049036 31.6030396,30.0891729 30.7437026,28.2638515 C29.8302723,26.3235267 30.0338921,25.4389022 28.9504855,24.3231715 C27.9787838,23.3224442 26.8243522,23.0051404 26.038679,22.7916255 C24.0853806,22.2608068 23.5816086,22.9088278 21.1159624,22.5682155 C19.8164022,22.3885639 18.6278873,22.2243048 17.4231005,21.3295653 C17.1088752,21.09648 15.793043,20.0781614 15.1949374,18.2576776 C14.5944131,16.4301573 15.2745382,15.4340477 15.5680937,12.4685876" id="Fill-5" fill="#156061"></path>
            <path d="M15.6786773,34.482456 C16.8326691,36.3262483 18.309682,37.255071 20.0516644,38.3505717 C22.3818572,39.8159303 24.4031022,40.3755548 25.0040663,40.5310183 C25.6468099,40.6974763 26.7530853,40.8188566 28.9553011,41.1102131 C30.9754465,41.3773816 31.0473512,41.3476962 31.4950507,41.4877673 C32.0918369,41.6746752 34.1462855,42.3171989 35.252341,44.2423512 C36.0523072,45.6344858 36.0289986,47.0340968 35.6861874,49.8009946 C35.5186299,51.1524493 35.3605277,52.3462415 34.622571,53.7137483 C34.3624391,54.1955311 33.0501252,56.5145095 30.3542524,57.4921482 C29.4608322,57.8160487 28.0412111,58.3308153 26.5488058,57.6821346 C25.1553518,57.0765528 24.4776455,55.7956834 24.1946448,55.2609066 C23.6556901,54.2419283 23.5376083,53.3381732 23.3841238,52.0724763 C23.1255311,49.9421651 23.4980277,49.6409134 23.2581258,48.0882578 C22.9460995,46.0683322 22.018816,44.6482713 21.6777639,44.1667084 C20.4441712,42.4245061 18.8868978,41.6247598 17.8760555,41.1055954 C16.6151962,40.4580142 15.5733491,40.2007409 14.2685115,39.8766204 C12.3963532,39.4115494 11.659276,39.4678417 9.89838295,39.1846211 C7.08156969,38.7316441 5.42622463,38.4653552 3.83574763,37.4342828 C3.38738836,37.1438058 -0.379797023,34.6928924 0.0311806495,31.1972733 C0.329133965,28.6639005 2.73738836,26.9472057 4.60602842,26.3875812 C7.5901793,25.4939411 10.117615,27.2763836 11.3136062,28.1196685 C12.8238227,29.1848241 13.7022903,30.6858051 14.1024932,31.3173342 C15.075954,32.8537179 14.8919046,33.225115 15.6786773,34.482456" id="Fill-7" fill="#E3801E"></path>
            <path d="M6.95700101,43.5910098 C10.1005734,40.8953569 14.0383948,41.9600727 14.3845044,42.0603434 C15.2532967,42.3114597 17.2567304,42.8906546 18.4188583,44.9151979 C19.8178095,47.3520382 18.9487974,50.056047 18.7684861,50.6174306 C17.7138853,53.8984354 14.6767405,55.7947818 12.0435369,56.294156 C11.4148664,56.4133373 6.88927436,57.1963718 4.73081698,54.1299814 C2.58555311,51.0816221 4.07136164,46.0654516 6.95700101,43.5910098" id="Fill-10" fill="#354443"></path>
            <path d="M66.6506174,41.4575761 L67.6379313,39.7287872 C69.698317,42.0033474 73.5189361,43.732796 77.5537297,43.732796 C83.5633711,43.732796 86.2251607,40.9568826 86.2251607,37.4990849 C86.2251607,27.9447886 67.4661959,33.6775863 67.4661959,21.9393251 C67.4661959,17.4352825 70.7285098,13.4767913 78.111815,13.4767913 C81.4172277,13.4767913 84.8512771,14.5687737 87.169156,16.3433001 L86.3537974,18.2086417 C83.8637432,16.3885978 80.8160436,15.5242033 78.111815,15.5242033 C72.273909,15.5242033 69.6552182,18.3907121 69.6552182,21.8940274 C69.6552182,31.447884 88.414183,25.8065612 88.414183,37.362752 C88.414183,41.8670145 85.0232324,45.7799882 77.5968285,45.7799882 C73.1323664,45.7799882 68.8398596,44.0054618 66.6506174,41.4575761" id="Fill-12" fill="#156061"></path>
            <path d="M91.3327182,33.6775203 C91.3327182,26.5800744 96.0973325,21.6210758 102.665279,21.6210758 C106.227965,21.6210758 109.318544,23.076979 111.164975,25.9887855 L109.576477,27.2171008 C107.9451,24.8057679 105.455705,23.668048 102.665279,23.668048 C97.3854584,23.668048 93.5217405,27.6718369 93.5217405,33.6775203 C93.5217405,39.6832037 97.3854584,43.6867727 102.665279,43.6867727 C105.455705,43.6867727 107.9451,42.5499323 109.576477,40.1383796 L111.164975,41.3669147 C109.318544,44.2329838 106.227965,45.7344046 102.665279,45.7344046 C96.0973325,45.7344046 91.3327182,40.7296685 91.3327182,33.6775203" id="Fill-14" fill="#156061"></path>
            <path d="M135.417891,31.6755159 L135.417891,45.5524442 L133.271308,45.5524442 L133.271308,31.858026 C133.271308,26.4889293 130.567079,23.668158 126.016639,23.668158 C120.736818,23.668158 117.517383,27.2625085 117.517383,32.9040511 L117.517383,45.5524442 L115.37102,45.5524442 L115.37102,11.7935639 L117.517383,11.7935639 L117.517383,26.7622547 C119.062782,23.5318251 122.153581,21.6209658 126.317451,21.6209658 C131.769007,21.6209658 135.417891,25.033026 135.417891,31.6755159" id="Fill-16" fill="#156061"></path>
            <path d="M158.940524,33.6775203 C158.940524,27.7175744 155.077466,23.668048 149.926282,23.668048 C144.775098,23.668048 140.91138,27.7175744 140.91138,33.6775203 C140.91138,39.6374662 144.775098,43.6867727 149.926282,43.6867727 C155.077466,43.6867727 158.940524,39.6374662 158.940524,33.6775203 M138.722358,33.6775203 C138.722358,26.625592 143.486972,21.6210758 149.926282,21.6210758 C156.364932,21.6210758 161.130206,26.625592 161.130206,33.6775203 C161.130206,40.7296685 156.364932,45.7344046 149.926282,45.7344046 C143.486972,45.7344046 138.722358,40.7296685 138.722358,33.6775203" id="Fill-18" fill="#156061"></path>
            <path d="M165.55091,39.3192168 L165.55091,11.7936079 L167.697053,11.7936079 L167.697053,39.0461113 C167.697053,42.0946905 168.984959,43.7779618 171.646309,43.7779618 C172.504767,43.7779618 173.277686,43.5503738 173.792673,43.3227859 L173.964408,45.2334252 C173.191488,45.5524882 172.247493,45.7343386 171.388816,45.7343386 C167.568417,45.7343386 165.55091,43.2777081 165.55091,39.3192168" id="Fill-20" fill="#156061"></path>
            <path d="M194.740352,33.6775203 C194.740352,27.7175744 190.876854,23.668048 185.72545,23.668048 C180.574486,23.668048 176.711208,27.7175744 176.711208,33.6775203 C176.711208,39.6374662 180.574486,43.6867727 185.72545,43.6867727 C190.876854,43.6867727 194.740352,39.6374662 194.740352,33.6775203 L194.740352,33.6775203 Z M196.886495,21.8029263 L196.886495,45.5523342 L194.783231,45.5523342 L194.783231,39.9563092 C193.023217,43.641475 189.632267,45.7344046 185.596813,45.7344046 C179.2868,45.7344046 174.522185,40.775406 174.522185,33.6775203 C174.522185,26.5345568 179.2868,21.6210758 185.596813,21.6210758 C189.589168,21.6210758 192.93724,23.7137855 194.740352,27.308136 L194.740352,21.8029263 L196.886495,21.8029263 Z" id="Fill-22" fill="#156061"></path>
            <path d="M214.314147,21.6210538 L214.314147,23.8503163 C214.142632,23.8503163 213.970677,23.8047987 213.798941,23.8047987 C208.819712,23.8047987 205.857551,27.308114 205.857551,33.1772446 L205.857551,45.5525321 L203.710968,45.5525321 L203.710968,21.8029043 L205.771353,21.8029043 L205.771353,26.9894909 C207.145017,23.5316932 210.107179,21.6210538 214.314147,21.6210538" id="Fill-24" fill="#156061"></path>
            <path d="M240.884986,24.805724 C240.884986,20.2561637 238.009022,17.6625406 232.514587,17.6625406 L225.21726,17.6625406 L225.21726,31.994205 L232.514587,31.994205 C238.009022,31.994205 240.884986,29.355724 240.884986,24.805724 L240.884986,24.805724 Z M241.014063,45.5525101 L234.531874,35.7708457 C233.93113,35.8159235 233.287287,35.8614411 232.643224,35.8614411 L225.21726,35.8614411 L225.21726,45.5525101 L220.924753,45.5525101 L220.924753,13.7044892 L232.643224,13.7044892 C240.455978,13.7044892 245.177493,17.8901286 245.177493,24.805724 C245.177493,29.7196448 242.773857,33.2684777 238.567327,34.8604939 L245.6927,45.5525101 L241.014063,45.5525101 Z" id="Fill-26" fill="#156061"></path>
            <path d="M267.413298,33.4956258 C267.413298,28.3545568 264.150765,25.033092 259.77206,25.033092 C255.393796,25.033092 252.088383,28.3545568 252.088383,33.4956258 C252.088383,38.6369147 255.393796,42.0034574 259.77206,42.0034574 C264.150765,42.0034574 267.413298,38.6369147 267.413298,33.4956258 M247.924293,33.4956258 C247.924293,26.3071448 252.94684,21.2113735 259.77206,21.2113735 C266.59772,21.2113735 271.577388,26.3071448 271.577388,33.4956258 C271.577388,40.6841069 266.59772,45.824956 259.77206,45.824956 C252.94684,45.824956 247.924293,40.6841069 247.924293,33.4956258" id="Fill-28" fill="#156061"></path>
            <path d="M275.525896,33.4956258 C275.525896,26.3071448 280.548444,21.2113735 287.545179,21.2113735 C291.623072,21.2113735 295.014242,22.9858999 296.817355,26.3526624 L293.683677,28.4911096 C292.224256,26.1250744 289.992135,25.033092 287.5023,25.033092 C283.037838,25.033092 279.689986,28.3545568 279.689986,33.4956258 C279.689986,38.72773 283.037838,42.0034574 287.5023,42.0034574 C289.992135,42.0034574 292.224256,40.9116949 293.683677,38.5456597 L296.817355,40.6390291 C295.014242,44.0053518 291.623072,45.824956 287.545179,45.824956 C280.548444,45.824956 275.525896,40.6841069 275.525896,33.4956258" id="Fill-30" fill="#156061"></path>
            <polygon id="Fill-32" fill="#156061" points="311.326164 34.3146566 306.604428 38.955252 306.604428 45.5524442 302.483657 45.5524442 302.483657 11.7935639 306.604428 11.7935639 306.604428 33.4500423 319.009841 21.4388955 323.989509 21.4388955 314.416962 31.4028501 324.934164 45.5524442 319.868518 45.5524442"></polygon>
        </g>
    </g>
</svg>